<svg width="32" height="32" viewBox="0 0 32 32" fill="none" xmlns="http://www.w3.org/2000/svg">
<g filter="url(#filter0_dii_602_3370)">
<circle cx="16" cy="12" r="12" fill="black" fill-opacity="0.07" shape-rendering="crispEdges"/>
<circle cx="16" cy="12" r="11.5" stroke="url(#paint0_linear_602_3370)" shape-rendering="crispEdges"/>
</g>
<ellipse cx="18" cy="13.5" rx="8" ry="8.5" fill="url(#paint1_radial_602_3370)"/>
<path d="M19.5 14.75V8.75C19.5 8.05964 18.9404 7.5 18.25 7.5C17.5596 7.5 17 8.05964 17 8.75V14.75C17 15.4404 17.5596 16 18.25 16C18.9404 16 19.5 15.4404 19.5 14.75Z" fill="white"/>
<path d="M19.5 14.75V8.75C19.5 8.05964 18.9404 7.5 18.25 7.5C17.5596 7.5 17 8.05964 17 8.75V14.75C17 15.4404 17.5596 16 18.25 16C18.9404 16 19.5 15.4404 19.5 14.75Z" stroke="white" stroke-linecap="round" stroke-linejoin="round"/>
<path d="M19.5 14.75V8.75C19.5 8.05964 18.9404 7.5 18.25 7.5C17.5596 7.5 17 8.05964 17 8.75V14.75C17 15.4404 17.5596 16 18.25 16C18.9404 16 19.5 15.4404 19.5 14.75Z" stroke="url(#paint2_linear_602_3370)" stroke-linecap="round" stroke-linejoin="round"/>
<path d="M15 14.75V8.75C15 8.05964 14.4404 7.5 13.75 7.5C13.0596 7.5 12.5 8.05964 12.5 8.75V14.75C12.5 15.4404 13.0596 16 13.75 16C14.4404 16 15 15.4404 15 14.75Z" fill="white"/>
<path d="M15 14.75V8.75C15 8.05964 14.4404 7.5 13.75 7.5C13.0596 7.5 12.5 8.05964 12.5 8.75V14.75C12.5 15.4404 13.0596 16 13.75 16C14.4404 16 15 15.4404 15 14.75Z" stroke="white" stroke-linecap="round" stroke-linejoin="round"/>
<path d="M15 14.75V8.75C15 8.05964 14.4404 7.5 13.75 7.5C13.0596 7.5 12.5 8.05964 12.5 8.75V14.75C12.5 15.4404 13.0596 16 13.75 16C14.4404 16 15 15.4404 15 14.75Z" stroke="url(#paint3_linear_602_3370)" stroke-linecap="round" stroke-linejoin="round"/>
<defs>
<filter id="filter0_dii_602_3370" x="0" y="-1" width="32" height="33" filterUnits="userSpaceOnUse" color-interpolation-filters="sRGB">
<feFlood flood-opacity="0" result="BackgroundImageFix"/>
<feColorMatrix in="SourceAlpha" type="matrix" values="0 0 0 0 0 0 0 0 0 0 0 0 0 0 0 0 0 0 127 0" result="hardAlpha"/>
<feOffset dy="4"/>
<feGaussianBlur stdDeviation="2"/>
<feComposite in2="hardAlpha" operator="out"/>
<feColorMatrix type="matrix" values="0 0 0 0 0 0 0 0 0 0 0 0 0 0 0 0 0 0 0.25 0"/>
<feBlend mode="normal" in2="BackgroundImageFix" result="effect1_dropShadow_602_3370"/>
<feBlend mode="normal" in="SourceGraphic" in2="effect1_dropShadow_602_3370" result="shape"/>
<feColorMatrix in="SourceAlpha" type="matrix" values="0 0 0 0 0 0 0 0 0 0 0 0 0 0 0 0 0 0 127 0" result="hardAlpha"/>
<feOffset dy="-1"/>
<feGaussianBlur stdDeviation="2"/>
<feComposite in2="hardAlpha" operator="arithmetic" k2="-1" k3="1"/>
<feColorMatrix type="matrix" values="0 0 0 0 1 0 0 0 0 1 0 0 0 0 1 0 0 0 1 0"/>
<feBlend mode="normal" in2="shape" result="effect2_innerShadow_602_3370"/>
<feColorMatrix in="SourceAlpha" type="matrix" values="0 0 0 0 0 0 0 0 0 0 0 0 0 0 0 0 0 0 127 0" result="hardAlpha"/>
<feOffset dy="1"/>
<feGaussianBlur stdDeviation="2"/>
<feComposite in2="hardAlpha" operator="arithmetic" k2="-1" k3="1"/>
<feColorMatrix type="matrix" values="0 0 0 0 0 0 0 0 0 0 0 0 0 0 0 0 0 0 1 0"/>
<feBlend mode="normal" in2="effect2_innerShadow_602_3370" result="effect3_innerShadow_602_3370"/>
</filter>
<linearGradient id="paint0_linear_602_3370" x1="16" y1="0" x2="16" y2="24" gradientUnits="userSpaceOnUse">
<stop stop-color="white"/>
<stop offset="1" stop-color="#3E3E3E"/>
</linearGradient>
<radialGradient id="paint1_radial_602_3370" cx="0" cy="0" r="1" gradientUnits="userSpaceOnUse" gradientTransform="translate(18 13.5) rotate(90) scale(8.5 8)">
<stop stop-color="#D9D9D9"/>
<stop offset="1" stop-color="#D9D9D9" stop-opacity="0"/>
</radialGradient>
<linearGradient id="paint2_linear_602_3370" x1="18.25" y1="8" x2="18.25" y2="15.5" gradientUnits="userSpaceOnUse">
<stop stop-color="white"/>
<stop offset="1" stop-color="#3E3E3E"/>
</linearGradient>
<linearGradient id="paint3_linear_602_3370" x1="13.75" y1="8" x2="13.75" y2="15.5" gradientUnits="userSpaceOnUse">
<stop stop-color="white"/>
<stop offset="1" stop-color="#3E3E3E"/>
</linearGradient>
</defs>
</svg>
