<svg width="32" height="32" viewBox="0 0 32 32" fill="none" xmlns="http://www.w3.org/2000/svg">
<g filter="url(#filter0_dii_584_3339)">
<circle cx="16" cy="12" r="12" fill="black" fill-opacity="0.07" shape-rendering="crispEdges"/>
<circle cx="16" cy="12" r="11.5" stroke="url(#paint0_linear_584_3339)" shape-rendering="crispEdges"/>
</g>
<ellipse cx="18" cy="13.5" rx="8" ry="8.5" fill="url(#paint1_radial_584_3339)"/>
<g filter="url(#filter1_d_584_3339)">
<path d="M13.0257 8.0421C12.7936 7.92435 12.5 8.06757 12.5 8.29855V15.2014C12.5 15.4324 12.7936 15.5757 13.0257 15.4579L19.8293 12.0065C20.0569 11.891 20.0569 11.609 19.8293 11.4935L13.0257 8.0421Z" fill="white"/>
<path d="M13.2519 15.9038L13.2519 15.9038L20.0555 12.4524L20.0556 12.4523C20.3243 12.316 20.5 12.0518 20.5 11.75C20.5 11.4482 20.3243 11.184 20.0556 11.0477L20.0555 11.0476L13.2519 7.5962C13.2519 7.5962 13.2519 7.5962 13.2519 7.5962C12.9859 7.46122 12.6891 7.47674 12.4566 7.59016C12.2244 7.70344 12 7.94925 12 8.29855V15.2014C12 15.5507 12.2244 15.7965 12.4566 15.9098C12.6891 16.0233 12.9858 16.0388 13.2519 15.9038Z" stroke="url(#paint2_linear_584_3339)" stroke-linecap="round" stroke-linejoin="round"/>
</g>
<defs>
<filter id="filter0_dii_584_3339" x="0" y="-1" width="32" height="33" filterUnits="userSpaceOnUse" color-interpolation-filters="sRGB">
<feFlood flood-opacity="0" result="BackgroundImageFix"/>
<feColorMatrix in="SourceAlpha" type="matrix" values="0 0 0 0 0 0 0 0 0 0 0 0 0 0 0 0 0 0 127 0" result="hardAlpha"/>
<feOffset dy="4"/>
<feGaussianBlur stdDeviation="2"/>
<feComposite in2="hardAlpha" operator="out"/>
<feColorMatrix type="matrix" values="0 0 0 0 0 0 0 0 0 0 0 0 0 0 0 0 0 0 0.25 0"/>
<feBlend mode="normal" in2="BackgroundImageFix" result="effect1_dropShadow_584_3339"/>
<feBlend mode="normal" in="SourceGraphic" in2="effect1_dropShadow_584_3339" result="shape"/>
<feColorMatrix in="SourceAlpha" type="matrix" values="0 0 0 0 0 0 0 0 0 0 0 0 0 0 0 0 0 0 127 0" result="hardAlpha"/>
<feOffset dy="-1"/>
<feGaussianBlur stdDeviation="2"/>
<feComposite in2="hardAlpha" operator="arithmetic" k2="-1" k3="1"/>
<feColorMatrix type="matrix" values="0 0 0 0 1 0 0 0 0 1 0 0 0 0 1 0 0 0 1 0"/>
<feBlend mode="normal" in2="shape" result="effect2_innerShadow_584_3339"/>
<feColorMatrix in="SourceAlpha" type="matrix" values="0 0 0 0 0 0 0 0 0 0 0 0 0 0 0 0 0 0 127 0" result="hardAlpha"/>
<feOffset dy="1"/>
<feGaussianBlur stdDeviation="2"/>
<feComposite in2="hardAlpha" operator="arithmetic" k2="-1" k3="1"/>
<feColorMatrix type="matrix" values="0 0 0 0 0 0 0 0 0 0 0 0 0 0 0 0 0 0 1 0"/>
<feBlend mode="normal" in2="effect2_innerShadow_584_3339" result="effect3_innerShadow_584_3339"/>
</filter>
<filter id="filter1_d_584_3339" x="9.5" y="7" width="13.5" height="13.5" filterUnits="userSpaceOnUse" color-interpolation-filters="sRGB">
<feFlood flood-opacity="0" result="BackgroundImageFix"/>
<feColorMatrix in="SourceAlpha" type="matrix" values="0 0 0 0 0 0 0 0 0 0 0 0 0 0 0 0 0 0 127 0" result="hardAlpha"/>
<feOffset dy="2"/>
<feGaussianBlur stdDeviation="1"/>
<feComposite in2="hardAlpha" operator="out"/>
<feColorMatrix type="matrix" values="0 0 0 0 0 0 0 0 0 0 0 0 0 0 0 0 0 0 0.5 0"/>
<feBlend mode="normal" in2="BackgroundImageFix" result="effect1_dropShadow_584_3339"/>
<feBlend mode="normal" in="SourceGraphic" in2="effect1_dropShadow_584_3339" result="shape"/>
</filter>
<linearGradient id="paint0_linear_584_3339" x1="16" y1="0" x2="16" y2="24" gradientUnits="userSpaceOnUse">
<stop stop-color="white"/>
<stop offset="1" stop-color="#3E3E3E"/>
</linearGradient>
<radialGradient id="paint1_radial_584_3339" cx="0" cy="0" r="1" gradientUnits="userSpaceOnUse" gradientTransform="translate(18 13.5) rotate(90) scale(8.5 8)">
<stop stop-color="#D9D9D9"/>
<stop offset="1" stop-color="#D9D9D9" stop-opacity="0"/>
</radialGradient>
<linearGradient id="paint2_linear_584_3339" x1="16.25" y1="8" x2="16.25" y2="15.5" gradientUnits="userSpaceOnUse">
<stop stop-color="white"/>
<stop offset="1" stop-color="#3E3E3E"/>
</linearGradient>
</defs>
</svg>
