<svg width="48" height="48" viewBox="0 0 48 48" fill="none" xmlns="http://www.w3.org/2000/svg">
<g filter="url(#filter0_ii_678_2243)">
<circle cx="24" cy="24" r="24" fill="black" fill-opacity="0.07"/>
</g>
<circle cx="24" cy="24" r="23.5" stroke="url(#paint0_linear_678_2243)"/>
<ellipse cx="28" cy="27" rx="16" ry="17" fill="url(#paint1_radial_678_2243)"/>
<g filter="url(#filter1_d_678_2243)">
<path d="M16.277 16.1423C15.76 15.8028 15 16.1091 15 16.6569V30.3431C15 30.891 15.76 31.1972 16.277 30.8577L26.7001 24.0146C27.1 23.7521 27.1 23.2479 26.7001 22.9854L16.277 16.1423Z" fill="white"/>
<path d="M16.5514 15.7243L16.5514 15.7243C16.1398 15.454 15.6455 15.4468 15.2577 15.6031C14.8726 15.7583 14.5 16.1224 14.5 16.6569V30.3431C14.5 30.8777 14.8726 31.2417 15.2577 31.3969C15.6455 31.5532 16.1398 31.546 16.5514 31.2757L16.5514 31.2757L26.9745 24.4326C26.9745 24.4326 26.9745 24.4326 26.9745 24.4326C27.3022 24.2175 27.5 23.8751 27.5 23.5C27.5 23.1249 27.3022 22.7825 26.9745 22.5674C26.9745 22.5674 26.9745 22.5674 26.9745 22.5674L16.5514 15.7243Z" stroke="url(#paint2_linear_678_2243)" stroke-linecap="round" stroke-linejoin="round"/>
</g>
<g filter="url(#filter2_d_678_2243)">
<path d="M30 29.5V17.5C30 16.6716 30.6716 16 31.5 16C32.3284 16 33 16.6716 33 17.5V29.5C33 30.3284 32.3284 31 31.5 31C30.6716 31 30 30.3284 30 29.5Z" fill="white"/>
<path d="M29.5 17.5V29.5C29.5 30.6046 30.3954 31.5 31.5 31.5C32.6046 31.5 33.5 30.6046 33.5 29.5V17.5C33.5 16.3954 32.6046 15.5 31.5 15.5C30.3954 15.5 29.5 16.3954 29.5 17.5Z" stroke="url(#paint3_linear_678_2243)"/>
</g>
<defs>
<filter id="filter0_ii_678_2243" x="0" y="-1" width="48" height="50" filterUnits="userSpaceOnUse" color-interpolation-filters="sRGB">
<feFlood flood-opacity="0" result="BackgroundImageFix"/>
<feBlend mode="normal" in="SourceGraphic" in2="BackgroundImageFix" result="shape"/>
<feColorMatrix in="SourceAlpha" type="matrix" values="0 0 0 0 0 0 0 0 0 0 0 0 0 0 0 0 0 0 127 0" result="hardAlpha"/>
<feOffset dy="1"/>
<feGaussianBlur stdDeviation="2"/>
<feComposite in2="hardAlpha" operator="arithmetic" k2="-1" k3="1"/>
<feColorMatrix type="matrix" values="0 0 0 0 0 0 0 0 0 0 0 0 0 0 0 0 0 0 1 0"/>
<feBlend mode="normal" in2="shape" result="effect1_innerShadow_678_2243"/>
<feColorMatrix in="SourceAlpha" type="matrix" values="0 0 0 0 0 0 0 0 0 0 0 0 0 0 0 0 0 0 127 0" result="hardAlpha"/>
<feOffset dy="-1"/>
<feGaussianBlur stdDeviation="2"/>
<feComposite in2="hardAlpha" operator="arithmetic" k2="-1" k3="1"/>
<feColorMatrix type="matrix" values="0 0 0 0 1 0 0 0 0 1 0 0 0 0 1 0 0 0 1 0"/>
<feBlend mode="normal" in2="effect1_innerShadow_678_2243" result="effect2_innerShadow_678_2243"/>
</filter>
<filter id="filter1_d_678_2243" x="12" y="15" width="18" height="21" filterUnits="userSpaceOnUse" color-interpolation-filters="sRGB">
<feFlood flood-opacity="0" result="BackgroundImageFix"/>
<feColorMatrix in="SourceAlpha" type="matrix" values="0 0 0 0 0 0 0 0 0 0 0 0 0 0 0 0 0 0 127 0" result="hardAlpha"/>
<feOffset dy="2"/>
<feGaussianBlur stdDeviation="1"/>
<feComposite in2="hardAlpha" operator="out"/>
<feColorMatrix type="matrix" values="0 0 0 0 0 0 0 0 0 0 0 0 0 0 0 0 0 0 0.5 0"/>
<feBlend mode="normal" in2="BackgroundImageFix" result="effect1_dropShadow_678_2243"/>
<feBlend mode="normal" in="SourceGraphic" in2="effect1_dropShadow_678_2243" result="shape"/>
</filter>
<filter id="filter2_d_678_2243" x="27" y="15" width="9" height="21" filterUnits="userSpaceOnUse" color-interpolation-filters="sRGB">
<feFlood flood-opacity="0" result="BackgroundImageFix"/>
<feColorMatrix in="SourceAlpha" type="matrix" values="0 0 0 0 0 0 0 0 0 0 0 0 0 0 0 0 0 0 127 0" result="hardAlpha"/>
<feOffset dy="2"/>
<feGaussianBlur stdDeviation="1"/>
<feComposite in2="hardAlpha" operator="out"/>
<feColorMatrix type="matrix" values="0 0 0 0 0 0 0 0 0 0 0 0 0 0 0 0 0 0 0.5 0"/>
<feBlend mode="normal" in2="BackgroundImageFix" result="effect1_dropShadow_678_2243"/>
<feBlend mode="normal" in="SourceGraphic" in2="effect1_dropShadow_678_2243" result="shape"/>
</filter>
<linearGradient id="paint0_linear_678_2243" x1="24" y1="0" x2="24" y2="48" gradientUnits="userSpaceOnUse">
<stop stop-color="white"/>
<stop offset="1" stop-color="#3E3E3E"/>
</linearGradient>
<radialGradient id="paint1_radial_678_2243" cx="0" cy="0" r="1" gradientUnits="userSpaceOnUse" gradientTransform="translate(28 27) rotate(90) scale(17 16)">
<stop stop-color="#D9D9D9"/>
<stop offset="1" stop-color="#D9D9D9" stop-opacity="0"/>
</radialGradient>
<linearGradient id="paint2_linear_678_2243" x1="21" y1="16" x2="21" y2="31" gradientUnits="userSpaceOnUse">
<stop stop-color="white"/>
<stop offset="1" stop-color="#3E3E3E"/>
</linearGradient>
<linearGradient id="paint3_linear_678_2243" x1="31.5" y1="16" x2="31.5" y2="31" gradientUnits="userSpaceOnUse">
<stop stop-color="white"/>
<stop offset="1" stop-color="#3E3E3E"/>
</linearGradient>
</defs>
</svg>
