<svg width="48" height="48" viewBox="0 0 48 48" fill="none" xmlns="http://www.w3.org/2000/svg">
<circle cx="24" cy="24" r="23.5" fill="black" fill-opacity="0.07" stroke="url(#paint0_linear_678_2243)"/>
<ellipse cx="28" cy="27" rx="16" ry="17" fill="url(#paint1_radial_678_2243)"/>
<path d="M16.5514 15.7243L16.5514 15.7243C16.1398 15.454 15.6455 15.4468 15.2577 15.6031C14.8726 15.7583 14.5 16.1224 14.5 16.6569V30.3431C14.5 30.8777 14.8726 31.2417 15.2577 31.3969C15.6455 31.5532 16.1398 31.546 16.5514 31.2757L16.5514 31.2757L26.9745 24.4326C26.9745 24.4326 26.9745 24.4326 26.9745 24.4326C27.3022 24.2175 27.5 23.8751 27.5 23.5C27.5 23.1249 27.3022 22.7825 26.9745 22.5674C26.9745 22.5674 26.9745 22.5674 26.9745 22.5674L16.5514 15.7243Z" fill="white" stroke="url(#paint2_linear_678_2243)" stroke-linecap="round" stroke-linejoin="round"/>
<path d="M29.5 17.5V29.5C29.5 30.6046 30.3954 31.5 31.5 31.5C32.6046 31.5 33.5 30.6046 33.5 29.5V17.5C33.5 16.3954 32.6046 15.5 31.5 15.5C30.3954 15.5 29.5 16.3954 29.5 17.5Z" fill="white" stroke="url(#paint3_linear_678_2243)"/>
<defs>
<linearGradient id="paint0_linear_678_2243" x1="24" y1="0" x2="24" y2="48" gradientUnits="userSpaceOnUse">
<stop stop-color="white"/>
<stop offset="1" stop-color="#3E3E3E"/>
</linearGradient>
<radialGradient id="paint1_radial_678_2243" cx="0" cy="0" r="1" gradientUnits="userSpaceOnUse" gradientTransform="translate(28 27) rotate(90) scale(17 16)">
<stop stop-color="#D9D9D9"/>
<stop offset="1" stop-color="#D9D9D9" stop-opacity="0"/>
</radialGradient>
<linearGradient id="paint2_linear_678_2243" x1="21" y1="16" x2="21" y2="31" gradientUnits="userSpaceOnUse">
<stop stop-color="white"/>
<stop offset="1" stop-color="#3E3E3E"/>
</linearGradient>
<linearGradient id="paint3_linear_678_2243" x1="31.5" y1="16" x2="31.5" y2="31" gradientUnits="userSpaceOnUse">
<stop stop-color="white"/>
<stop offset="1" stop-color="#3E3E3E"/>
</linearGradient>
</defs>
</svg>
