<svg width="48" height="48" viewBox="0 0 48 48" fill="none" xmlns="http://www.w3.org/2000/svg">
<g filter="url(#filter0_ii_678_2249)">
<circle cx="24" cy="24" r="24" fill="black" fill-opacity="0.07"/>
</g>
<circle cx="24" cy="24" r="23.5" stroke="url(#paint0_linear_678_2249)"/>
<ellipse cx="28" cy="27" rx="16" ry="17" fill="url(#paint1_radial_678_2249)"/>
<g filter="url(#filter1_d_678_2249)">
<path d="M18.0515 16.0842C17.5872 15.8487 17 16.1351 17 16.5971V30.4029C17 30.8648 17.5872 31.1513 18.0515 30.9158L31.6587 24.0129C32.1138 23.782 32.1138 23.218 31.6587 22.9871L18.0515 16.0842Z" fill="white"/>
<path d="M18.2777 31.3617L18.2777 31.3617L31.8849 24.4588L31.8849 24.4588C32.2674 24.2647 32.5 23.9012 32.5 23.5C32.5 23.0988 32.2674 22.7353 31.8849 22.5412L31.8849 22.5412L18.2777 15.6383C18.2777 15.6383 18.2777 15.6383 18.2777 15.6383C17.8955 15.4444 17.4674 15.4663 17.1324 15.6297C16.7978 15.793 16.5 16.1323 16.5 16.5971V30.4029C16.5 30.8677 16.7978 31.207 17.1324 31.3703C17.4674 31.5337 17.8955 31.5556 18.2777 31.3617Z" stroke="url(#paint2_linear_678_2249)" stroke-linecap="round" stroke-linejoin="round"/>
</g>
<defs>
<filter id="filter0_ii_678_2249" x="0" y="-1" width="48" height="50" filterUnits="userSpaceOnUse" color-interpolation-filters="sRGB">
<feFlood flood-opacity="0" result="BackgroundImageFix"/>
<feBlend mode="normal" in="SourceGraphic" in2="BackgroundImageFix" result="shape"/>
<feColorMatrix in="SourceAlpha" type="matrix" values="0 0 0 0 0 0 0 0 0 0 0 0 0 0 0 0 0 0 127 0" result="hardAlpha"/>
<feOffset dy="-1"/>
<feGaussianBlur stdDeviation="2"/>
<feComposite in2="hardAlpha" operator="arithmetic" k2="-1" k3="1"/>
<feColorMatrix type="matrix" values="0 0 0 0 1 0 0 0 0 1 0 0 0 0 1 0 0 0 1 0"/>
<feBlend mode="normal" in2="shape" result="effect1_innerShadow_678_2249"/>
<feColorMatrix in="SourceAlpha" type="matrix" values="0 0 0 0 0 0 0 0 0 0 0 0 0 0 0 0 0 0 127 0" result="hardAlpha"/>
<feOffset dy="1"/>
<feGaussianBlur stdDeviation="2"/>
<feComposite in2="hardAlpha" operator="arithmetic" k2="-1" k3="1"/>
<feColorMatrix type="matrix" values="0 0 0 0 0 0 0 0 0 0 0 0 0 0 0 0 0 0 1 0"/>
<feBlend mode="normal" in2="effect1_innerShadow_678_2249" result="effect2_innerShadow_678_2249"/>
</filter>
<filter id="filter1_d_678_2249" x="14" y="15" width="21" height="21" filterUnits="userSpaceOnUse" color-interpolation-filters="sRGB">
<feFlood flood-opacity="0" result="BackgroundImageFix"/>
<feColorMatrix in="SourceAlpha" type="matrix" values="0 0 0 0 0 0 0 0 0 0 0 0 0 0 0 0 0 0 127 0" result="hardAlpha"/>
<feOffset dy="2"/>
<feGaussianBlur stdDeviation="1"/>
<feComposite in2="hardAlpha" operator="out"/>
<feColorMatrix type="matrix" values="0 0 0 0 0 0 0 0 0 0 0 0 0 0 0 0 0 0 0.5 0"/>
<feBlend mode="normal" in2="BackgroundImageFix" result="effect1_dropShadow_678_2249"/>
<feBlend mode="normal" in="SourceGraphic" in2="effect1_dropShadow_678_2249" result="shape"/>
</filter>
<linearGradient id="paint0_linear_678_2249" x1="24" y1="0" x2="24" y2="48" gradientUnits="userSpaceOnUse">
<stop stop-color="white"/>
<stop offset="1" stop-color="#3E3E3E"/>
</linearGradient>
<radialGradient id="paint1_radial_678_2249" cx="0" cy="0" r="1" gradientUnits="userSpaceOnUse" gradientTransform="translate(28 27) rotate(90) scale(17 16)">
<stop stop-color="#D9D9D9"/>
<stop offset="1" stop-color="#D9D9D9" stop-opacity="0"/>
</radialGradient>
<linearGradient id="paint2_linear_678_2249" x1="24.5" y1="16" x2="24.5" y2="31" gradientUnits="userSpaceOnUse">
<stop stop-color="white"/>
<stop offset="1" stop-color="#3E3E3E"/>
</linearGradient>
</defs>
</svg>
