<svg width="32" height="32" viewBox="0 0 32 32" fill="none" xmlns="http://www.w3.org/2000/svg">
<g filter="url(#filter0_dii_584_3344)">
<circle cx="16" cy="12" r="12" fill="black" fill-opacity="0.07" shape-rendering="crispEdges"/>
<circle cx="16" cy="12" r="11.5" stroke="url(#paint0_linear_584_3344)" shape-rendering="crispEdges"/>
</g>
<ellipse cx="18" cy="13.5" rx="8" ry="8.5" fill="url(#paint1_radial_584_3344)"/>
<g filter="url(#filter1_d_584_3344)">
<path d="M19.8615 8.07114C20.12 7.90141 20.5 8.05454 20.5 8.32846V15.1716C20.5 15.4455 20.12 15.5986 19.8615 15.4289L14.65 12.0073C14.45 11.8761 14.45 11.6239 14.65 11.4927L19.8615 8.07114Z" fill="white"/>
<path d="M19.5871 7.65317L19.5871 7.65317L14.3756 11.0747C14.3756 11.0747 14.3756 11.0747 14.3755 11.0747C14.1478 11.2242 14 11.4707 14 11.75C14 12.0293 14.1478 12.2758 14.3756 12.4253L19.5871 15.8468L19.5871 15.8469C19.8695 16.0322 20.2041 16.0353 20.4646 15.9303C20.7224 15.8264 21 15.5691 21 15.1716V8.32846C21 7.93089 20.7224 7.67358 20.4646 7.56967C20.2042 7.46472 19.8695 7.46776 19.5871 7.65317Z" stroke="url(#paint2_linear_584_3344)" stroke-linecap="round" stroke-linejoin="round"/>
</g>
<g filter="url(#filter2_d_584_3344)">
<path d="M11.5 14.75V8.75C11.5 8.33579 11.8358 8 12.25 8C12.6642 8 13 8.33579 13 8.75V14.75C13 15.1642 12.6642 15.5 12.25 15.5C11.8358 15.5 11.5 15.1642 11.5 14.75Z" fill="white"/>
<path d="M11 8.75V14.75C11 15.4404 11.5596 16 12.25 16C12.9404 16 13.5 15.4404 13.5 14.75V8.75C13.5 8.05964 12.9404 7.5 12.25 7.5C11.5596 7.5 11 8.05964 11 8.75Z" stroke="url(#paint3_linear_584_3344)"/>
</g>
<defs>
<filter id="filter0_dii_584_3344" x="0" y="-1" width="32" height="33" filterUnits="userSpaceOnUse" color-interpolation-filters="sRGB">
<feFlood flood-opacity="0" result="BackgroundImageFix"/>
<feColorMatrix in="SourceAlpha" type="matrix" values="0 0 0 0 0 0 0 0 0 0 0 0 0 0 0 0 0 0 127 0" result="hardAlpha"/>
<feOffset dy="4"/>
<feGaussianBlur stdDeviation="2"/>
<feComposite in2="hardAlpha" operator="out"/>
<feColorMatrix type="matrix" values="0 0 0 0 0 0 0 0 0 0 0 0 0 0 0 0 0 0 0.25 0"/>
<feBlend mode="normal" in2="BackgroundImageFix" result="effect1_dropShadow_584_3344"/>
<feBlend mode="normal" in="SourceGraphic" in2="effect1_dropShadow_584_3344" result="shape"/>
<feColorMatrix in="SourceAlpha" type="matrix" values="0 0 0 0 0 0 0 0 0 0 0 0 0 0 0 0 0 0 127 0" result="hardAlpha"/>
<feOffset dy="1"/>
<feGaussianBlur stdDeviation="2"/>
<feComposite in2="hardAlpha" operator="arithmetic" k2="-1" k3="1"/>
<feColorMatrix type="matrix" values="0 0 0 0 0 0 0 0 0 0 0 0 0 0 0 0 0 0 1 0"/>
<feBlend mode="normal" in2="shape" result="effect2_innerShadow_584_3344"/>
<feColorMatrix in="SourceAlpha" type="matrix" values="0 0 0 0 0 0 0 0 0 0 0 0 0 0 0 0 0 0 127 0" result="hardAlpha"/>
<feOffset dy="-1"/>
<feGaussianBlur stdDeviation="2"/>
<feComposite in2="hardAlpha" operator="arithmetic" k2="-1" k3="1"/>
<feColorMatrix type="matrix" values="0 0 0 0 1 0 0 0 0 1 0 0 0 0 1 0 0 0 1 0"/>
<feBlend mode="normal" in2="effect2_innerShadow_584_3344" result="effect3_innerShadow_584_3344"/>
</filter>
<filter id="filter1_d_584_3344" x="11.5" y="7" width="12" height="13.5" filterUnits="userSpaceOnUse" color-interpolation-filters="sRGB">
<feFlood flood-opacity="0" result="BackgroundImageFix"/>
<feColorMatrix in="SourceAlpha" type="matrix" values="0 0 0 0 0 0 0 0 0 0 0 0 0 0 0 0 0 0 127 0" result="hardAlpha"/>
<feOffset dy="2"/>
<feGaussianBlur stdDeviation="1"/>
<feComposite in2="hardAlpha" operator="out"/>
<feColorMatrix type="matrix" values="0 0 0 0 0 0 0 0 0 0 0 0 0 0 0 0 0 0 0.5 0"/>
<feBlend mode="normal" in2="BackgroundImageFix" result="effect1_dropShadow_584_3344"/>
<feBlend mode="normal" in="SourceGraphic" in2="effect1_dropShadow_584_3344" result="shape"/>
</filter>
<filter id="filter2_d_584_3344" x="8.5" y="7" width="7.5" height="13.5" filterUnits="userSpaceOnUse" color-interpolation-filters="sRGB">
<feFlood flood-opacity="0" result="BackgroundImageFix"/>
<feColorMatrix in="SourceAlpha" type="matrix" values="0 0 0 0 0 0 0 0 0 0 0 0 0 0 0 0 0 0 127 0" result="hardAlpha"/>
<feOffset dy="2"/>
<feGaussianBlur stdDeviation="1"/>
<feComposite in2="hardAlpha" operator="out"/>
<feColorMatrix type="matrix" values="0 0 0 0 0 0 0 0 0 0 0 0 0 0 0 0 0 0 0.5 0"/>
<feBlend mode="normal" in2="BackgroundImageFix" result="effect1_dropShadow_584_3344"/>
<feBlend mode="normal" in="SourceGraphic" in2="effect1_dropShadow_584_3344" result="shape"/>
</filter>
<linearGradient id="paint0_linear_584_3344" x1="16" y1="0" x2="16" y2="24" gradientUnits="userSpaceOnUse">
<stop stop-color="white"/>
<stop offset="1" stop-color="#3E3E3E"/>
</linearGradient>
<radialGradient id="paint1_radial_584_3344" cx="0" cy="0" r="1" gradientUnits="userSpaceOnUse" gradientTransform="translate(18 13.5) rotate(90) scale(8.5 8)">
<stop stop-color="#D9D9D9"/>
<stop offset="1" stop-color="#D9D9D9" stop-opacity="0"/>
</radialGradient>
<linearGradient id="paint2_linear_584_3344" x1="17.5" y1="8" x2="17.5" y2="15.5" gradientUnits="userSpaceOnUse">
<stop stop-color="white"/>
<stop offset="1" stop-color="#3E3E3E"/>
</linearGradient>
<linearGradient id="paint3_linear_584_3344" x1="12.25" y1="8" x2="12.25" y2="15.5" gradientUnits="userSpaceOnUse">
<stop stop-color="white"/>
<stop offset="1" stop-color="#3E3E3E"/>
</linearGradient>
</defs>
</svg>
