<svg width="48" height="48" viewBox="0 0 48 48" fill="none" xmlns="http://www.w3.org/2000/svg">
<circle cx="24" cy="24" r="23.5" fill="black" fill-opacity="0.07" stroke="url(#paint0_linear_678_2254)"/>
<ellipse cx="28" cy="27" rx="16" ry="17" fill="url(#paint1_radial_678_2254)"/>
<path d="M30.5 29.5V17.5C30.5 16.3954 29.6046 15.5 28.5 15.5C27.3954 15.5 26.5 16.3954 26.5 17.5V29.5C26.5 30.6046 27.3954 31.5 28.5 31.5C29.6046 31.5 30.5 30.6046 30.5 29.5Z" fill="white"/>
<path d="M30.5 29.5V17.5C30.5 16.3954 29.6046 15.5 28.5 15.5C27.3954 15.5 26.5 16.3954 26.5 17.5V29.5C26.5 30.6046 27.3954 31.5 28.5 31.5C29.6046 31.5 30.5 30.6046 30.5 29.5Z" stroke="white" stroke-linecap="round" stroke-linejoin="round"/>
<path d="M30.5 29.5V17.5C30.5 16.3954 29.6046 15.5 28.5 15.5C27.3954 15.5 26.5 16.3954 26.5 17.5V29.5C26.5 30.6046 27.3954 31.5 28.5 31.5C29.6046 31.5 30.5 30.6046 30.5 29.5Z" stroke="url(#paint2_linear_678_2254)" stroke-linecap="round" stroke-linejoin="round"/>
<path d="M21.5 29.5V17.5C21.5 16.3954 20.6046 15.5 19.5 15.5C18.3954 15.5 17.5 16.3954 17.5 17.5V29.5C17.5 30.6046 18.3954 31.5 19.5 31.5C20.6046 31.5 21.5 30.6046 21.5 29.5Z" fill="white"/>
<path d="M21.5 29.5V17.5C21.5 16.3954 20.6046 15.5 19.5 15.5C18.3954 15.5 17.5 16.3954 17.5 17.5V29.5C17.5 30.6046 18.3954 31.5 19.5 31.5C20.6046 31.5 21.5 30.6046 21.5 29.5Z" stroke="white" stroke-linecap="round" stroke-linejoin="round"/>
<path d="M21.5 29.5V17.5C21.5 16.3954 20.6046 15.5 19.5 15.5C18.3954 15.5 17.5 16.3954 17.5 17.5V29.5C17.5 30.6046 18.3954 31.5 19.5 31.5C20.6046 31.5 21.5 30.6046 21.5 29.5Z" stroke="url(#paint3_linear_678_2254)" stroke-linecap="round" stroke-linejoin="round"/>
<defs>
<linearGradient id="paint0_linear_678_2254" x1="24" y1="0" x2="24" y2="48" gradientUnits="userSpaceOnUse">
<stop stop-color="white"/>
<stop offset="1" stop-color="#3E3E3E"/>
</linearGradient>
<radialGradient id="paint1_radial_678_2254" cx="0" cy="0" r="1" gradientUnits="userSpaceOnUse" gradientTransform="translate(28 27) rotate(90) scale(17 16)">
<stop stop-color="#D9D9D9"/>
<stop offset="1" stop-color="#D9D9D9" stop-opacity="0"/>
</radialGradient>
<linearGradient id="paint2_linear_678_2254" x1="28.5" y1="16" x2="28.5" y2="31" gradientUnits="userSpaceOnUse">
<stop stop-color="white"/>
<stop offset="1" stop-color="#3E3E3E"/>
</linearGradient>
<linearGradient id="paint3_linear_678_2254" x1="19.5" y1="16" x2="19.5" y2="31" gradientUnits="userSpaceOnUse">
<stop stop-color="white"/>
<stop offset="1" stop-color="#3E3E3E"/>
</linearGradient>
</defs>
</svg>
