<svg width="150" height="150" viewBox="0 0 150 150" fill="none" xmlns="http://www.w3.org/2000/svg">
<mask id="path-1-inside-1_227_265" fill="white">
<path d="M139.019 37.25C145.557 48.5743 148.999 61.4199 149 74.4961C149.001 87.5722 145.56 100.418 139.023 111.743C132.486 123.068 123.083 132.473 111.76 139.013C100.437 145.553 87.5919 148.997 74.5157 149L74.5 74.5L139.019 37.25Z"/>
</mask>
<path d="M139.019 37.25C145.557 48.5743 148.999 61.4199 149 74.4961C149.001 87.5722 145.56 100.418 139.023 111.743C132.486 123.068 123.083 132.473 111.76 139.013C100.437 145.553 87.5919 148.997 74.5157 149L74.5 74.5L139.019 37.25Z" fill="url(#paint0_radial_227_265)" stroke="url(#paint1_radial_227_265)" stroke-width="8" mask="url(#path-1-inside-1_227_265)"/>
<path d="M98.3477 87.6562L111.043 96.9688L98.3477 106.281V87.6562Z" stroke="white" stroke-width="2" stroke-linecap="round" stroke-linejoin="round"/>
<path d="M116.121 88.8203V105.117" stroke="white" stroke-width="2" stroke-linecap="round" stroke-linejoin="round"/>
<mask id="path-4-inside-2_227_265" fill="white">
<path d="M74.5 149C61.4239 149 48.578 145.558 37.2534 139.021C25.9288 132.483 16.5243 123.08 9.98505 111.757C3.44578 100.433 0.00207494 87.588 9.37103e-07 74.5118C-0.00207307 61.4357 3.43755 48.5893 9.97323 37.2636L74.5 74.5V149Z"/>
</mask>
<path d="M74.5 149C61.4239 149 48.578 145.558 37.2534 139.021C25.9288 132.483 16.5243 123.08 9.98505 111.757C3.44578 100.433 0.00207494 87.588 9.37103e-07 74.5118C-0.00207307 61.4357 3.43755 48.5893 9.97323 37.2636L74.5 74.5V149Z" fill="url(#paint2_radial_227_265)" stroke="url(#paint3_radial_227_265)" stroke-width="8" mask="url(#path-4-inside-2_227_265)"/>
<path d="M54.1211 106.281L41.4258 96.9688L54.1211 87.6562V106.281Z" stroke="white" stroke-width="2" stroke-linecap="round" stroke-linejoin="round"/>
<path d="M36.3477 105.117V88.8203" stroke="white" stroke-width="2" stroke-linecap="round" stroke-linejoin="round"/>
<mask id="path-7-inside-3_227_265" fill="white">
<path d="M9.98112 37.25C16.5192 25.9257 25.9227 16.5217 37.2466 9.98307C48.5705 3.4444 61.416 0.00138135 74.4921 4.15447e-07C87.5683 -0.00138052 100.414 3.43893 111.74 9.9752C123.065 16.5115 132.471 25.9135 139.011 37.2364L74.5 74.5L9.98112 37.25Z"/>
</mask>
<path d="M9.98112 37.25C16.5192 25.9257 25.9227 16.5217 37.2466 9.98307C48.5705 3.4444 61.416 0.00138135 74.4921 4.15447e-07C87.5683 -0.00138052 100.414 3.43893 111.74 9.9752C123.065 16.5115 132.471 25.9135 139.011 37.2364L74.5 74.5L9.98112 37.25Z" fill="url(#paint4_radial_227_265)" stroke="url(#paint5_radial_227_265)" stroke-width="8" mask="url(#path-7-inside-3_227_265)"/>
<path d="M73 29H69V45H73V29Z" stroke="white" stroke-width="2" stroke-linecap="round" stroke-linejoin="round"/>
<path d="M81 29H77V45H81V29Z" stroke="white" stroke-width="2" stroke-linecap="round" stroke-linejoin="round"/>
<defs>
<radialGradient id="paint0_radial_227_265" cx="0" cy="0" r="1" gradientUnits="userSpaceOnUse" gradientTransform="translate(74.5 74.5) rotate(90) scale(74.5)">
<stop offset="0.829861" stop-color="#202020"/>
<stop offset="1" stop-color="#9A9A9A"/>
</radialGradient>
<radialGradient id="paint1_radial_227_265" cx="0" cy="0" r="1" gradientUnits="userSpaceOnUse" gradientTransform="translate(74.5 74.5) rotate(90) scale(74.5)">
<stop offset="0.527778" stop-color="#A0A0A0"/>
<stop offset="1" stop-opacity="0"/>
</radialGradient>
<radialGradient id="paint2_radial_227_265" cx="0" cy="0" r="1" gradientUnits="userSpaceOnUse" gradientTransform="translate(74.5 74.5) rotate(90) scale(74.5)">
<stop offset="0.819444" stop-color="#202020"/>
<stop offset="1" stop-color="#9A9A9A"/>
</radialGradient>
<radialGradient id="paint3_radial_227_265" cx="0" cy="0" r="1" gradientUnits="userSpaceOnUse" gradientTransform="translate(74.5 74.5) rotate(90) scale(74.5)">
<stop offset="0.527778" stop-color="#A0A0A0"/>
<stop offset="1" stop-opacity="0"/>
</radialGradient>
<radialGradient id="paint4_radial_227_265" cx="0" cy="0" r="1" gradientUnits="userSpaceOnUse" gradientTransform="translate(74.5 74.5) rotate(90) scale(74.5)">
<stop offset="0.819444" stop-color="#202020"/>
<stop offset="1" stop-color="#9A9A9A"/>
</radialGradient>
<radialGradient id="paint5_radial_227_265" cx="0" cy="0" r="1" gradientUnits="userSpaceOnUse" gradientTransform="translate(74.5 74.5) rotate(90) scale(74.5)">
<stop offset="0.527778" stop-color="#A0A0A0"/>
<stop offset="1" stop-opacity="0"/>
</radialGradient>
</defs>
</svg>
