<svg width="146" height="30" viewBox="0 0 146 30" fill="none" xmlns="http://www.w3.org/2000/svg">
<g filter="url(#filter0_i_464_654)">
<path d="M5.67188 17.6523V26.5C5.67188 26.9167 5.59375 27.2878 5.4375 27.6133C5.29427 27.9258 5.09896 28.1862 4.85156 28.3945C4.60417 28.6029 4.31771 28.7591 3.99219 28.8633C3.67969 28.9674 3.36068 29.0195 3.03516 29.0195C2.70964 29.0195 2.39062 28.9674 2.07812 28.8633C1.76562 28.7591 1.48568 28.6029 1.23828 28.3945C0.990885 28.1862 0.789062 27.9258 0.632812 27.6133C0.489583 27.2878 0.417969 26.9167 0.417969 26.5V3.51172C0.417969 3.16016 0.483073 2.82812 0.613281 2.51562C0.75651 2.1901 0.945312 1.91016 1.17969 1.67578C1.42708 1.44141 1.70703 1.25911 2.01953 1.12891C2.34505 0.985677 2.6901 0.914062 3.05469 0.914062H10.9648C12.4232 0.914062 13.8099 1.0638 15.125 1.36328C16.4531 1.66276 17.612 2.14453 18.6016 2.80859C19.6042 3.47266 20.3984 4.33203 20.9844 5.38672C21.5703 6.44141 21.8633 7.73047 21.8633 9.25391C21.8633 10.8034 21.5573 12.112 20.9453 13.1797C20.3464 14.2474 19.526 15.1133 18.4844 15.7773C17.4557 16.4414 16.2513 16.9232 14.8711 17.2227C13.4909 17.5091 12.0326 17.6523 10.4961 17.6523H5.67188ZM10.2617 14.0586C11.1602 14.0586 11.9935 13.9805 12.7617 13.8242C13.543 13.668 14.2135 13.4076 14.7734 13.043C15.3464 12.6654 15.7956 12.1706 16.1211 11.5586C16.4466 10.9336 16.6094 10.1654 16.6094 9.25391C16.6094 8.34245 16.4466 7.58724 16.1211 6.98828C15.8086 6.3763 15.3724 5.88802 14.8125 5.52344C14.2656 5.15885 13.6146 4.89844 12.8594 4.74219C12.1172 4.58594 11.3164 4.50781 10.457 4.50781H5.67188V14.0586H10.2617ZM29.0703 29C28.7188 29 28.3802 28.9349 28.0547 28.8047C27.7422 28.6615 27.4622 28.4727 27.2148 28.2383C26.9805 28.0039 26.7917 27.7305 26.6484 27.418C26.5052 27.1055 26.4336 26.7669 26.4336 26.4023V3.47266C26.4336 3.05599 26.5052 2.69141 26.6484 2.37891C26.8047 2.05339 27.0065 1.78646 27.2539 1.57812C27.5013 1.36979 27.7812 1.21354 28.0938 1.10938C28.4062 1.00521 28.7318 0.953125 29.0703 0.953125C29.3958 0.953125 29.7148 1.00521 30.0273 1.10938C30.3398 1.21354 30.6198 1.36979 30.8672 1.57812C31.1146 1.78646 31.3099 2.05339 31.4531 2.37891C31.6094 2.69141 31.6875 3.05599 31.6875 3.47266V25.0547H42.9766C43.3021 25.0547 43.5885 25.1133 43.8359 25.2305C44.0833 25.3477 44.2852 25.4974 44.4414 25.6797C44.6107 25.862 44.7344 26.0703 44.8125 26.3047C44.9036 26.5391 44.9492 26.7799 44.9492 27.0273C44.9492 27.2747 44.9036 27.5156 44.8125 27.75C44.7344 27.9844 44.6107 28.1992 44.4414 28.3945C44.2852 28.5768 44.0833 28.7266 43.8359 28.8438C43.5885 28.9479 43.3021 29 42.9766 29H29.0703ZM72.8594 25.9336C72.9505 26.194 72.9961 26.4544 72.9961 26.7148C72.9961 27.0664 72.918 27.3854 72.7617 27.6719C72.6185 27.9453 72.4232 28.1797 72.1758 28.375C71.9284 28.5703 71.6484 28.7201 71.3359 28.8242C71.0234 28.9284 70.7044 28.9805 70.3789 28.9805C69.8971 28.9805 69.4414 28.8503 69.0117 28.5898C68.5951 28.3164 68.3151 27.8932 68.1719 27.3203L66.1406 22.1055H53.6211L51.6094 27.3203C51.4531 27.9062 51.1667 28.3294 50.75 28.5898C50.3464 28.8503 49.9102 28.9805 49.4414 28.9805C49.1289 28.9805 48.8164 28.9284 48.5039 28.8242C48.1914 28.7201 47.9115 28.5703 47.6641 28.375C47.4297 28.1797 47.2344 27.9453 47.0781 27.6719C46.9349 27.3984 46.8633 27.0924 46.8633 26.7539C46.8633 26.6237 46.8698 26.4935 46.8828 26.3633C46.9089 26.2201 46.9544 26.0768 47.0195 25.9336L55.2227 5.42578C55.5482 4.51432 55.8737 3.77214 56.1992 3.19922C56.5247 2.61328 56.8698 2.15755 57.2344 1.83203C57.612 1.49349 58.0156 1.25911 58.4453 1.12891C58.888 0.998698 59.3763 0.933594 59.9102 0.933594C60.457 0.933594 60.9518 1.00521 61.3945 1.14844C61.8372 1.27865 62.2409 1.51302 62.6055 1.85156C62.9831 2.1901 63.3346 2.65234 63.6602 3.23828C63.9857 3.8112 64.3047 4.54036 64.6172 5.42578L72.8594 25.9336ZM59.8516 4.9375L54.6953 18.8242H65.0664L59.9297 4.9375H59.8516ZM85.8867 17.5547V26.4805C85.8867 26.8971 85.8086 27.2682 85.6523 27.5938C85.5091 27.9062 85.3138 28.1732 85.0664 28.3945C84.819 28.6029 84.5326 28.7591 84.207 28.8633C83.8945 28.9674 83.5755 29.0195 83.25 29.0195C82.9245 29.0195 82.6055 28.9674 82.293 28.8633C81.9805 28.7591 81.7005 28.6029 81.4531 28.3945C81.2057 28.1732 81.0039 27.9062 80.8477 27.5938C80.7044 27.2682 80.6328 26.8971 80.6328 26.4805V17.6523L72.1562 4.17578C72.0521 3.99349 71.9805 3.81771 71.9414 3.64844C71.9023 3.47917 71.8763 3.31641 71.8633 3.16016C71.8633 2.84766 71.9414 2.55469 72.0977 2.28125C72.2539 2.00781 72.4622 1.77344 72.7227 1.57812C72.9831 1.38281 73.276 1.23307 73.6016 1.12891C73.9271 1.01172 74.2591 0.953125 74.5977 0.953125C75.0404 0.953125 75.457 1.0638 75.8477 1.28516C76.2383 1.49349 76.5443 1.83854 76.7656 2.32031L83.5039 13.9414H83.582L90.3789 2.22266C90.5872 1.76693 90.8737 1.44141 91.2383 1.24609C91.6029 1.05078 91.9935 0.953125 92.4102 0.953125C92.7096 0.953125 93.0026 0.998698 93.2891 1.08984C93.5755 1.18099 93.8294 1.3112 94.0508 1.48047C94.2721 1.64974 94.4479 1.85156 94.5781 2.08594C94.7214 2.32031 94.793 2.58073 94.793 2.86719C94.793 3.01042 94.7734 3.16667 94.7344 3.33594C94.6953 3.50521 94.6237 3.67448 94.5195 3.84375L85.8867 17.5547ZM102.293 29C101.954 29 101.629 28.9349 101.316 28.8047C101.017 28.6615 100.75 28.4792 100.516 28.2578C100.281 28.0234 100.092 27.7565 99.9492 27.457C99.806 27.1445 99.7344 26.819 99.7344 26.4805V3.43359C99.7344 3.10807 99.793 2.79557 99.9102 2.49609C100.04 2.18359 100.216 1.91016 100.438 1.67578C100.672 1.44141 100.939 1.25911 101.238 1.12891C101.538 0.985677 101.863 0.914062 102.215 0.914062H116.434C116.759 0.914062 117.039 0.972656 117.273 1.08984C117.521 1.19401 117.723 1.33724 117.879 1.51953C118.048 1.70182 118.172 1.91016 118.25 2.14453C118.328 2.36589 118.367 2.60026 118.367 2.84766C118.367 3.08203 118.328 3.31641 118.25 3.55078C118.172 3.78516 118.048 3.99349 117.879 4.17578C117.723 4.35807 117.521 4.50781 117.273 4.625C117.039 4.72917 116.759 4.78125 116.434 4.78125H104.832V12.6914H115.691C116.017 12.6914 116.303 12.75 116.551 12.8672C116.798 12.9714 117 13.1146 117.156 13.2969C117.326 13.4792 117.449 13.6875 117.527 13.9219C117.605 14.1432 117.645 14.3776 117.645 14.625C117.645 14.8594 117.599 15.0938 117.508 15.3281C117.43 15.5625 117.306 15.7708 117.137 15.9531C116.98 16.1354 116.779 16.2852 116.531 16.4023C116.297 16.5065 116.017 16.5586 115.691 16.5586H104.832V25.1328H116.863C117.189 25.1328 117.469 25.1914 117.703 25.3086C117.951 25.4128 118.152 25.556 118.309 25.7383C118.478 25.9206 118.602 26.1289 118.68 26.3633C118.758 26.5846 118.797 26.819 118.797 27.0664C118.797 27.3008 118.758 27.5352 118.68 27.7695C118.602 28.0039 118.478 28.2122 118.309 28.3945C118.152 28.5768 117.951 28.7266 117.703 28.8438C117.469 28.9479 117.189 29 116.863 29H102.293ZM124.441 3.47266C124.441 3.12109 124.507 2.78906 124.637 2.47656C124.78 2.16406 124.969 1.89714 125.203 1.67578C125.438 1.44141 125.711 1.25911 126.023 1.12891C126.349 0.985677 126.688 0.914062 127.039 0.914062H135.828C137.143 0.914062 138.406 1.01823 139.617 1.22656C140.841 1.4349 141.922 1.8125 142.859 2.35938C143.797 2.89323 144.546 3.6224 145.105 4.54688C145.678 5.47135 145.965 6.64974 145.965 8.08203C145.965 8.86328 145.841 9.59896 145.594 10.2891C145.359 10.9792 144.995 11.5977 144.5 12.1445C144.018 12.6914 143.4 13.1602 142.645 13.5508C141.902 13.9414 141.017 14.2344 139.988 14.4297V14.5078C140.965 14.651 141.772 14.8789 142.41 15.1914C143.048 15.5039 143.562 15.9141 143.953 16.4219C144.357 16.9167 144.656 17.5091 144.852 18.1992C145.047 18.8893 145.197 19.6706 145.301 20.543C145.392 21.3242 145.47 22.0664 145.535 22.7695C145.6 23.4596 145.659 24.0716 145.711 24.6055C145.763 25.2305 145.809 25.8034 145.848 26.3242V26.5586C145.848 26.9492 145.77 27.2943 145.613 27.5938C145.47 27.8932 145.275 28.1471 145.027 28.3555C144.793 28.5508 144.52 28.7005 144.207 28.8047C143.908 28.9089 143.595 28.9609 143.27 28.9609C142.97 28.9609 142.671 28.9154 142.371 28.8242C142.085 28.7331 141.818 28.5964 141.57 28.4141C141.336 28.2318 141.134 27.9974 140.965 27.7109C140.809 27.4245 140.704 27.0924 140.652 26.7148C140.509 25.3216 140.392 24.1042 140.301 23.0625C140.21 22.0208 140.099 21.1289 139.969 20.3867C139.852 19.6315 139.689 19.013 139.48 18.5312C139.272 18.0495 138.979 17.6719 138.602 17.3984C138.237 17.125 137.762 16.9362 137.176 16.832C136.603 16.7148 135.887 16.6562 135.027 16.6562H129.617V26.4805C129.617 26.8971 129.539 27.2617 129.383 27.5742C129.24 27.8867 129.044 28.1471 128.797 28.3555C128.549 28.5508 128.27 28.7005 127.957 28.8047C127.658 28.9089 127.345 28.9609 127.02 28.9609C126.694 28.9609 126.375 28.9089 126.062 28.8047C125.763 28.7005 125.49 28.5508 125.242 28.3555C125.008 28.1471 124.812 27.8867 124.656 27.5742C124.513 27.2617 124.441 26.8971 124.441 26.4805V3.47266ZM133.797 13.1016C134.604 13.1016 135.418 13.0625 136.238 12.9844C137.059 12.8932 137.801 12.6979 138.465 12.3984C139.129 12.099 139.669 11.6628 140.086 11.0898C140.503 10.5169 140.711 9.73568 140.711 8.74609C140.711 7.76953 140.529 7.0013 140.164 6.44141C139.799 5.88151 139.331 5.45833 138.758 5.17188C138.185 4.88542 137.547 4.70312 136.844 4.625C136.141 4.54688 135.457 4.50781 134.793 4.50781H129.617V13.1016H133.797Z" fill="#00FF66"/>
</g>
<defs>
<filter id="filter0_i_464_654" x="0.417969" y="-1.08594" width="145.547" height="30.1055" filterUnits="userSpaceOnUse" color-interpolation-filters="sRGB">
<feFlood flood-opacity="0" result="BackgroundImageFix"/>
<feBlend mode="normal" in="SourceGraphic" in2="BackgroundImageFix" result="shape"/>
<feColorMatrix in="SourceAlpha" type="matrix" values="0 0 0 0 0 0 0 0 0 0 0 0 0 0 0 0 0 0 127 0" result="hardAlpha"/>
<feOffset dy="-4"/>
<feGaussianBlur stdDeviation="1"/>
<feComposite in2="hardAlpha" operator="arithmetic" k2="-1" k3="1"/>
<feColorMatrix type="matrix" values="0 0 0 0 0 0 0 0 0 0 0 0 0 0 0 0 0 0 0.5 0"/>
<feBlend mode="normal" in2="shape" result="effect1_innerShadow_464_654"/>
</filter>
</defs>
</svg>
