<svg width="148" height="30" viewBox="0 0 148 30" fill="none" xmlns="http://www.w3.org/2000/svg">
<g filter="url(#filter0_i_470_3117)">
<path d="M5.61719 7.96484C5.61719 8.74609 5.82552 9.39714 6.24219 9.91797C6.67188 10.4388 7.23828 10.888 7.94141 11.2656C8.64453 11.6302 9.45182 11.9557 10.3633 12.2422C11.2747 12.5156 12.2122 12.7956 13.1758 13.082C14.4128 13.4596 15.5651 13.8698 16.6328 14.3125C17.7005 14.7552 18.625 15.2956 19.4062 15.9336C20.1875 16.5586 20.7995 17.3073 21.2422 18.1797C21.6979 19.0521 21.9258 20.1003 21.9258 21.3242C21.9258 22.6263 21.6589 23.7982 21.125 24.8398C20.5911 25.8685 19.8424 26.7474 18.8789 27.4766C17.9154 28.1927 16.7565 28.7396 15.4023 29.1172C14.0482 29.5078 12.5443 29.7031 10.8906 29.7031C9.65365 29.7031 8.47526 29.599 7.35547 29.3906C6.2487 29.1823 5.23307 28.8958 4.30859 28.5312C3.39714 28.1536 2.59635 27.7174 1.90625 27.2227C1.21615 26.7148 0.675781 26.1615 0.285156 25.5625C0.18099 25.3672 0.128906 25.1458 0.128906 24.8984C0.128906 24.6641 0.18099 24.4232 0.285156 24.1758C0.389323 23.9284 0.519531 23.707 0.675781 23.5117C0.845052 23.3034 1.02734 23.1341 1.22266 23.0039C1.43099 22.8737 1.63281 22.8086 1.82812 22.8086C2.04948 22.8086 2.27083 22.8802 2.49219 23.0234C2.72656 23.1667 2.95443 23.3099 3.17578 23.4531C3.59245 23.7266 4.06771 24 4.60156 24.2734C5.14844 24.5339 5.74089 24.7682 6.37891 24.9766C7.02995 25.1849 7.72656 25.3542 8.46875 25.4844C9.22396 25.6146 10.0182 25.6797 10.8516 25.6797C11.6849 25.6797 12.4596 25.6016 13.1758 25.4453C13.8919 25.2891 14.5104 25.0547 15.0312 24.7422C15.5651 24.4167 15.9818 24.013 16.2812 23.5312C16.5807 23.0495 16.7305 22.4766 16.7305 21.8125C16.7305 20.9531 16.5156 20.25 16.0859 19.7031C15.6562 19.1562 15.0898 18.694 14.3867 18.3164C13.6836 17.9258 12.8828 17.6003 11.9844 17.3398C11.0859 17.0664 10.168 16.7799 9.23047 16.4805C8.87891 16.3633 8.46224 16.2201 7.98047 16.0508C7.4987 15.8815 7.01042 15.6992 6.51562 15.5039C6.03385 15.2956 5.57161 15.0872 5.12891 14.8789C4.69922 14.6576 4.34766 14.4492 4.07422 14.2539C1.69141 13.069 0.5 11.0638 0.5 8.23828C0.5 6.98828 0.766927 5.875 1.30078 4.89844C1.84766 3.90885 2.59635 3.07552 3.54688 2.39844C4.4974 1.70833 5.61719 1.1875 6.90625 0.835938C8.19531 0.471354 9.59505 0.289062 11.1055 0.289062C13.1107 0.289062 14.901 0.582031 16.4766 1.16797C18.0521 1.74089 19.4128 2.60677 20.5586 3.76562C20.7279 3.94792 20.8451 4.14323 20.9102 4.35156C20.9753 4.54688 21.0078 4.76172 21.0078 4.99609C21.0078 5.21745 20.9753 5.44531 20.9102 5.67969C20.8451 5.91406 20.7409 6.12891 20.5977 6.32422C20.4544 6.51953 20.2656 6.68229 20.0312 6.8125C19.8099 6.92969 19.5365 6.98828 19.2109 6.98828C18.8464 6.98828 18.4362 6.79297 17.9805 6.40234C17.6289 6.15495 17.2188 5.90755 16.75 5.66016C16.2812 5.39974 15.7669 5.17188 15.207 4.97656C14.6471 4.78125 14.0482 4.625 13.4102 4.50781C12.7721 4.3776 12.1016 4.3125 11.3984 4.3125C10.7083 4.3125 10.0182 4.38411 9.32812 4.52734C8.65104 4.65755 8.03255 4.8724 7.47266 5.17188C6.92578 5.45833 6.47656 5.83594 6.125 6.30469C5.78646 6.76042 5.61719 7.3138 5.61719 7.96484ZM27.3945 3.39453C27.3945 2.97786 27.4661 2.61328 27.6094 2.30078C27.7656 1.97526 27.9674 1.70833 28.2148 1.5C28.4622 1.29167 28.7422 1.13542 29.0547 1.03125C29.3672 0.927083 29.6862 0.875 30.0117 0.875C30.3372 0.875 30.6562 0.927083 30.9688 1.03125C31.2812 1.13542 31.5612 1.29167 31.8086 1.5C32.056 1.70833 32.2513 1.97526 32.3945 2.30078C32.5508 2.61328 32.6289 2.97786 32.6289 3.39453V26.4609C32.6289 26.8776 32.5508 27.2422 32.3945 27.5547C32.2513 27.8672 32.056 28.1276 31.8086 28.3359C31.5612 28.5443 31.2747 28.7005 30.9492 28.8047C30.6367 28.9089 30.3177 28.9609 29.9922 28.9609C29.6667 28.9609 29.3477 28.9089 29.0352 28.8047C28.7227 28.7005 28.4427 28.5443 28.1953 28.3359C27.9609 28.1276 27.7656 27.8672 27.6094 27.5547C27.4661 27.2422 27.3945 26.8776 27.3945 26.4609V3.39453ZM61.2812 14.2148C61.9714 14.2148 62.4596 14.4036 62.7461 14.7812C63.0326 15.1458 63.1758 15.6732 63.1758 16.3633V25.543C63.1758 26.3893 62.9544 27.0469 62.5117 27.5156C62.082 27.9844 61.5417 28.2708 60.8906 28.375C60.2917 28.5573 59.6276 28.7266 58.8984 28.8828C58.1823 29.026 57.4466 29.1562 56.6914 29.2734C55.9362 29.3906 55.1875 29.4818 54.4453 29.5469C53.7161 29.612 53.0391 29.6445 52.4141 29.6445C50.2917 29.6445 48.3646 29.3516 46.6328 28.7656C44.901 28.1797 43.4167 27.2878 42.1797 26.0898C40.9557 24.8789 40.0052 23.3555 39.3281 21.5195C38.6641 19.6706 38.332 17.4896 38.332 14.9766C38.332 13.6224 38.4557 12.3203 38.7031 11.0703C38.9635 9.82031 39.3542 8.65495 39.875 7.57422C40.3958 6.48047 41.0469 5.49089 41.8281 4.60547C42.6224 3.70703 43.5469 2.9388 44.6016 2.30078C45.6693 1.66276 46.8672 1.16797 48.1953 0.816406C49.5365 0.464844 51.0143 0.289062 52.6289 0.289062C54.1784 0.289062 55.6628 0.425781 57.082 0.699219C58.5143 0.972656 59.8099 1.35026 60.9688 1.83203C61.3984 2.01432 61.7109 2.26823 61.9062 2.59375C62.1016 2.90625 62.1992 3.24479 62.1992 3.60938C62.1992 3.85677 62.1536 4.10417 62.0625 4.35156C61.9844 4.58594 61.8607 4.80078 61.6914 4.99609C61.5221 5.17839 61.3203 5.32812 61.0859 5.44531C60.8516 5.5625 60.5911 5.62109 60.3047 5.62109C60.2266 5.62109 60.1419 5.61458 60.0508 5.60156C59.9596 5.58854 59.8685 5.56901 59.7773 5.54297C59.2435 5.41276 58.6836 5.28906 58.0977 5.17188C57.5117 5.04167 56.9258 4.93099 56.3398 4.83984C55.7539 4.73568 55.1745 4.65755 54.6016 4.60547C54.0417 4.55339 53.5208 4.52734 53.0391 4.52734C51.3854 4.52734 49.9727 4.79427 48.8008 5.32812C47.6419 5.86198 46.6914 6.60417 45.9492 7.55469C45.2201 8.50521 44.6862 9.625 44.3477 10.9141C44.0091 12.2031 43.8398 13.6094 43.8398 15.1328C43.8398 16.8906 43.9961 18.4401 44.3086 19.7812C44.6211 21.1094 45.1289 22.2227 45.832 23.1211C46.5352 24.0195 47.4466 24.6966 48.5664 25.1523C49.6862 25.6081 51.0534 25.8359 52.668 25.8359C53.5664 25.8359 54.4714 25.7708 55.3828 25.6406C56.3073 25.5104 57.1992 25.3411 58.0586 25.1328V17.5352H53.5273C53.2539 17.5352 53.013 17.4896 52.8047 17.3984C52.5964 17.2943 52.4206 17.1641 52.2773 17.0078C52.1471 16.8516 52.0495 16.6758 51.9844 16.4805C51.9193 16.2721 51.8867 16.0638 51.8867 15.8555C51.8867 15.6471 51.9193 15.4453 51.9844 15.25C52.0495 15.0547 52.1471 14.8789 52.2773 14.7227C52.4206 14.5664 52.5964 14.4427 52.8047 14.3516C53.013 14.2604 53.2539 14.2148 53.5273 14.2148H61.2812ZM69.4258 4.03906C69.4258 3.54427 69.4974 3.10807 69.6406 2.73047C69.7969 2.33984 70.0052 2.01432 70.2656 1.75391C70.526 1.48047 70.819 1.27865 71.1445 1.14844C71.4831 1.00521 71.8411 0.933594 72.2188 0.933594C72.7135 0.933594 73.2018 1.05729 73.6836 1.30469C74.1784 1.55208 74.6276 1.92969 75.0312 2.4375L88.6836 22.1055V3.14062C88.6836 2.77604 88.7487 2.45703 88.8789 2.18359C89.0091 1.89714 89.1784 1.66276 89.3867 1.48047C89.6081 1.29818 89.8555 1.16146 90.1289 1.07031C90.4154 0.966146 90.7018 0.914062 90.9883 0.914062C91.2747 0.914062 91.5547 0.959635 91.8281 1.05078C92.1016 1.14193 92.3424 1.28516 92.5508 1.48047C92.7721 1.66276 92.9479 1.89714 93.0781 2.18359C93.2083 2.45703 93.2734 2.77604 93.2734 3.14062V25.8945C93.2734 26.3893 93.1953 26.832 93.0391 27.2227C92.8828 27.6003 92.6745 27.9193 92.4141 28.1797C92.1536 28.4401 91.8477 28.6419 91.4961 28.7852C91.1576 28.9284 90.7995 29 90.4219 29C89.9401 29 89.4518 28.8828 88.957 28.6484C88.4753 28.401 88.026 28.0169 87.6094 27.4961L74.0352 7.92578V26.793C74.0352 27.1576 73.9635 27.4766 73.8203 27.75C73.6901 28.0234 73.5143 28.2578 73.293 28.4531C73.0846 28.6354 72.8372 28.7721 72.5508 28.8633C72.2773 28.9544 71.9974 29 71.7109 29C71.4245 29 71.1445 28.9544 70.8711 28.8633C70.5977 28.7721 70.3503 28.6354 70.1289 28.4531C69.9206 28.2708 69.7513 28.043 69.6211 27.7695C69.4909 27.4961 69.4258 27.1706 69.4258 26.793V4.03906ZM112.121 3.39453C112.121 2.97786 112.193 2.61328 112.336 2.30078C112.492 1.97526 112.694 1.70833 112.941 1.5C113.189 1.29167 113.469 1.13542 113.781 1.03125C114.094 0.927083 114.413 0.875 114.738 0.875C115.064 0.875 115.383 0.927083 115.695 1.03125C116.008 1.13542 116.288 1.29167 116.535 1.5C116.783 1.70833 116.978 1.97526 117.121 2.30078C117.277 2.61328 117.355 2.97786 117.355 3.39453V26.4609C117.355 26.8776 117.277 27.2422 117.121 27.5547C116.978 27.8672 116.783 28.1276 116.535 28.3359C116.288 28.5443 116.001 28.7005 115.676 28.8047C115.363 28.9089 115.044 28.9609 114.719 28.9609C114.393 28.9609 114.074 28.9089 113.762 28.8047C113.449 28.7005 113.169 28.5443 112.922 28.3359C112.688 28.1276 112.492 27.8672 112.336 27.5547C112.193 27.2422 112.121 26.8776 112.121 26.4609V3.39453ZM124.152 4.03906C124.152 3.54427 124.224 3.10807 124.367 2.73047C124.523 2.33984 124.732 2.01432 124.992 1.75391C125.253 1.48047 125.546 1.27865 125.871 1.14844C126.21 1.00521 126.568 0.933594 126.945 0.933594C127.44 0.933594 127.928 1.05729 128.41 1.30469C128.905 1.55208 129.354 1.92969 129.758 2.4375L143.41 22.1055V3.14062C143.41 2.77604 143.475 2.45703 143.605 2.18359C143.736 1.89714 143.905 1.66276 144.113 1.48047C144.335 1.29818 144.582 1.16146 144.855 1.07031C145.142 0.966146 145.428 0.914062 145.715 0.914062C146.001 0.914062 146.281 0.959635 146.555 1.05078C146.828 1.14193 147.069 1.28516 147.277 1.48047C147.499 1.66276 147.674 1.89714 147.805 2.18359C147.935 2.45703 148 2.77604 148 3.14062V25.8945C148 26.3893 147.922 26.832 147.766 27.2227C147.609 27.6003 147.401 27.9193 147.141 28.1797C146.88 28.4401 146.574 28.6419 146.223 28.7852C145.884 28.9284 145.526 29 145.148 29C144.667 29 144.178 28.8828 143.684 28.6484C143.202 28.401 142.753 28.0169 142.336 27.4961L128.762 7.92578V26.793C128.762 27.1576 128.69 27.4766 128.547 27.75C128.417 28.0234 128.241 28.2578 128.02 28.4531C127.811 28.6354 127.564 28.7721 127.277 28.8633C127.004 28.9544 126.724 29 126.438 29C126.151 29 125.871 28.9544 125.598 28.8633C125.324 28.7721 125.077 28.6354 124.855 28.4531C124.647 28.2708 124.478 28.043 124.348 27.7695C124.217 27.4961 124.152 27.1706 124.152 26.793V4.03906Z" fill="#00FF66"/>
</g>
<defs>
<filter id="filter0_i_470_3117" x="0.128906" y="-1.71094" width="147.871" height="31.4141" filterUnits="userSpaceOnUse" color-interpolation-filters="sRGB">
<feFlood flood-opacity="0" result="BackgroundImageFix"/>
<feBlend mode="normal" in="SourceGraphic" in2="BackgroundImageFix" result="shape"/>
<feColorMatrix in="SourceAlpha" type="matrix" values="0 0 0 0 0 0 0 0 0 0 0 0 0 0 0 0 0 0 127 0" result="hardAlpha"/>
<feOffset dy="-4"/>
<feGaussianBlur stdDeviation="1"/>
<feComposite in2="hardAlpha" operator="arithmetic" k2="-1" k3="1"/>
<feColorMatrix type="matrix" values="0 0 0 0 0 0 0 0 0 0 0 0 0 0 0 0 0 0 0.5 0"/>
<feBlend mode="normal" in2="shape" result="effect1_innerShadow_470_3117"/>
</filter>
</defs>
</svg>
