<svg width="304" height="237" viewBox="0 0 304 237" fill="none" xmlns="http://www.w3.org/2000/svg">
<path d="M5.9571 20.5006C15.0793 -0.498844 38.915 0.000865234 50.5153 0.00105628C68.4087 0.00135096 64.7993 11.554 70.5139 42.502C72.2681 52.0025 77.3673 92.5223 86.4895 106.502C94.7301 119.131 182.676 109.121 180.33 98.502C174.366 71.502 162.788 40.5025 180.33 30.502C186.994 26.7032 256.623 4.77741 285.937 20.5006C316.011 36.6312 298.45 74.5447 297.515 86.0019C294.007 129.002 249.126 94.2249 242.257 146.501C242.257 187.501 242.257 173.68 242.257 200.001C242.257 242.951 186.646 236.002 166.296 236.002C145.947 236.002 145.52 229.934 150.157 203.502C155.069 175.502 155.368 158.002 138.93 158.002C113.414 158.002 65.2511 166.501 47.3576 164.001C29.4642 161.501 7.07707 165.869 0.34347 122.001C-1.7892 108.107 6.73828 94.8802 5.9571 81.0011C4.93908 62.9142 -4.12939 43.7201 5.9571 20.5006Z" fill="url(#paint0_linear_613_3388)"/>
<path d="M11.0462 42.0131C16.9004 17.0029 26.4975 10.9337 38.2508 11.5024C52.3083 12.1827 62.3562 11.3394 62.3562 42.0131C62.3562 52.5124 68.9349 103.543 80.4895 115.502C87.0169 122.258 188.362 115.502 192.489 110.502C200.647 100.621 171.968 55.8508 182.194 41.002C187.704 33.002 295.489 15.7492 295.489 53.502C295.489 120.002 241.57 101.237 235.82 131.509C230.884 157.494 235.82 189.263 235.82 204.504C235.82 229.376 179.766 228.502 163.254 228.502C146.743 228.502 160.486 199.005 160.486 183.505C160.486 149.966 154.286 148.002 140.526 148.002C119.167 148.002 96.1589 150.507 71.3914 150.507C46.624 150.507 19.173 150.501 14.4898 123.002C12.1708 109.385 20.187 95.08 18.9665 85.5019C16.8517 68.9049 6.95499 59.4915 11.0462 42.0131Z" fill="url(#paint1_radial_613_3388)"/>
<defs>
<linearGradient id="paint0_linear_613_3388" x1="127.921" y1="-3.49804" x2="127.921" y2="250.502" gradientUnits="userSpaceOnUse">
<stop stop-color="white"/>
<stop offset="0.12" stop-color="#FDFDFD"/>
<stop offset="0.165" stop-color="#D6D6D6"/>
<stop offset="0.195" stop-color="#FDFDFD"/>
<stop offset="0.335" stop-color="#F5F5F5"/>
<stop offset="0.535"/>
<stop offset="0.645" stop-color="#DEDEDE"/>
<stop offset="0.801667" stop-color="#DEDEDE"/>
<stop offset="0.851667" stop-color="#949494"/>
<stop offset="0.916667" stop-color="#DEDEDE"/>
<stop offset="1" stop-color="#DEDEDE"/>
</linearGradient>
<radialGradient id="paint1_radial_613_3388" cx="0" cy="0" r="1" gradientUnits="userSpaceOnUse" gradientTransform="translate(128.474 124.002) rotate(90) scale(113.5 117.772)">
<stop stop-color="#48A8E9"/>
<stop offset="0.57" stop-color="#4ABCF6"/>
<stop offset="1" stop-color="#B3E6F4"/>
</radialGradient>
</defs>
</svg>
