<svg width="610" height="242" viewBox="0 0 610 242" fill="none" xmlns="http://www.w3.org/2000/svg">
<path d="M7.00607 16.8519C25.1531 -4.14943 109.323 -1.65032 129.641 3.8502C155.502 10.8513 135.231 12.9047 146.599 43.8554C150.089 53.3568 160.233 93.8801 178.38 107.861C194.773 120.491 369.728 110.48 365.061 99.8603C353.196 72.858 330.163 41.8557 365.061 31.8543C378.318 28.0552 516.833 6.12752 575.148 21.8521C634.975 37.9841 600.041 75.9009 598.181 87.3592C591.202 130.363 501.919 95.5829 488.254 147.864C488.254 188.868 512.589 188.048 512.589 214.37C512.589 257.324 377.625 237.373 337.143 237.373C296.661 237.373 295.812 231.304 305.037 204.87C314.808 176.867 315.402 159.366 282.702 159.366C231.942 159.366 136.129 167.866 100.533 165.365C64.9371 162.865 20.4015 167.233 7.00607 123.362C2.76347 109.467 19.7275 96.2383 18.1735 82.358C16.1483 64.2694 -13.0594 40.0734 7.00607 16.8519Z" fill="url(#paint0_linear_697_2242)"/>
<path d="M10.4182 22.3504C22.4025 -2.6619 94.3509 -2.1526 113.799 8.34903C130.986 17.6302 124.785 12.6894 124.785 43.3658C124.785 53.8661 138.253 104.902 161.907 116.861C175.269 123.617 382.736 116.861 391.186 111.861C407.887 101.979 349.175 57.2048 370.111 42.3546C381.39 34.3539 602.042 17.0996 602.042 54.8557C602.042 121.362 491.662 102.595 479.89 132.87C469.786 158.857 498.661 203.627 498.661 218.87C498.661 243.744 365.14 229.871 331.338 229.871C297.536 229.871 325.67 200.371 325.67 184.871C325.67 151.329 312.979 149.364 284.811 149.364C241.086 149.364 193.984 151.87 143.282 151.87C92.5791 151.87 36.3831 151.863 26.796 124.362C22.0486 110.744 38.4589 96.4374 35.9604 86.8585C31.6311 70.26 2.04288 39.8305 10.4182 22.3504Z" fill="url(#paint1_radial_697_2242)"/>
<defs>
<linearGradient id="paint0_linear_697_2242" x1="260.801" y1="-2.14863" x2="260.801" y2="251.873" gradientUnits="userSpaceOnUse">
<stop stop-color="white"/>
<stop offset="0.12" stop-color="#FDFDFD"/>
<stop offset="0.165" stop-color="#D6D6D6"/>
<stop offset="0.195" stop-color="#FDFDFD"/>
<stop offset="0.335" stop-color="#F5F5F5"/>
<stop offset="0.535"/>
<stop offset="0.645" stop-color="#DEDEDE"/>
<stop offset="0.801667" stop-color="#DEDEDE"/>
<stop offset="0.851667" stop-color="#949494"/>
<stop offset="0.916667" stop-color="#DEDEDE"/>
<stop offset="1" stop-color="#DEDEDE"/>
</linearGradient>
<radialGradient id="paint1_radial_697_2242" cx="0" cy="0" r="1" gradientUnits="userSpaceOnUse" gradientTransform="translate(260.137 125.363) rotate(90) scale(113.51 241.096)">
<stop stop-color="#48A8E9"/>
<stop offset="0.57" stop-color="#4ABCF6"/>
<stop offset="1" stop-color="#B3E6F4"/>
</radialGradient>
</defs>
</svg>
