<svg width="56" height="56" viewBox="0 0 56 56" fill="none" xmlns="http://www.w3.org/2000/svg">
    <g filter="url(#filter0_dii_678_2254)">
        <circle cx="28" cy="24" r="24" fill="black" fill-opacity="0.07" shape-rendering="crispEdges" />
        <circle cx="28" cy="24" r="23.5" stroke="url(#paint0_linear_678_2254)" shape-rendering="crispEdges" />
    </g>
    <ellipse cx="32" cy="27" rx="16" ry="17" fill="url(#paint1_radial_678_2254)" />
    <path
        d="M34.5 29.5V17.5C34.5 16.3954 33.6046 15.5 32.5 15.5C31.3954 15.5 30.5 16.3954 30.5 17.5V29.5C30.5 30.6046 31.3954 31.5 32.5 31.5C33.6046 31.5 34.5 30.6046 34.5 29.5Z"
        fill="white" />
    <path
        d="M34.5 29.5V17.5C34.5 16.3954 33.6046 15.5 32.5 15.5C31.3954 15.5 30.5 16.3954 30.5 17.5V29.5C30.5 30.6046 31.3954 31.5 32.5 31.5C33.6046 31.5 34.5 30.6046 34.5 29.5Z"
        stroke="white" stroke-linecap="round" stroke-linejoin="round" />
    <path
        d="M34.5 29.5V17.5C34.5 16.3954 33.6046 15.5 32.5 15.5C31.3954 15.5 30.5 16.3954 30.5 17.5V29.5C30.5 30.6046 31.3954 31.5 32.5 31.5C33.6046 31.5 34.5 30.6046 34.5 29.5Z"
        stroke="url(#paint2_linear_678_2254)" stroke-linecap="round" stroke-linejoin="round" />
    <path
        d="M25.5 29.5V17.5C25.5 16.3954 24.6046 15.5 23.5 15.5C22.3954 15.5 21.5 16.3954 21.5 17.5V29.5C21.5 30.6046 22.3954 31.5 23.5 31.5C24.6046 31.5 25.5 30.6046 25.5 29.5Z"
        fill="white" />
    <path
        d="M25.5 29.5V17.5C25.5 16.3954 24.6046 15.5 23.5 15.5C22.3954 15.5 21.5 16.3954 21.5 17.5V29.5C21.5 30.6046 22.3954 31.5 23.5 31.5C24.6046 31.5 25.5 30.6046 25.5 29.5Z"
        stroke="white" stroke-linecap="round" stroke-linejoin="round" />
    <path
        d="M25.5 29.5V17.5C25.5 16.3954 24.6046 15.5 23.5 15.5C22.3954 15.5 21.5 16.3954 21.5 17.5V29.5C21.5 30.6046 22.3954 31.5 23.5 31.5C24.6046 31.5 25.5 30.6046 25.5 29.5Z"
        stroke="url(#paint3_linear_678_2254)" stroke-linecap="round" stroke-linejoin="round" />
    <defs>
        <filter id="filter0_dii_678_2254" x="0" y="-1" width="56" height="57" filterUnits="userSpaceOnUse"
            color-interpolation-filters="sRGB">
            <feFlood flood-opacity="0" result="BackgroundImageFix" />
            <feColorMatrix in="SourceAlpha" type="matrix" values="0 0 0 0 0 0 0 0 0 0 0 0 0 0 0 0 0 0 127 0"
                result="hardAlpha" />
            <feOffset dy="4" />
            <feGaussianBlur stdDeviation="2" />
            <feComposite in2="hardAlpha" operator="out" />
            <feColorMatrix type="matrix" values="0 0 0 0 0 0 0 0 0 0 0 0 0 0 0 0 0 0 0.25 0" />
            <feBlend mode="normal" in2="BackgroundImageFix" result="effect1_dropShadow_678_2254" />
            <feBlend mode="normal" in="SourceGraphic" in2="effect1_dropShadow_678_2254" result="shape" />
            <feColorMatrix in="SourceAlpha" type="matrix" values="0 0 0 0 0 0 0 0 0 0 0 0 0 0 0 0 0 0 127 0"
                result="hardAlpha" />
            <feOffset dy="-1" />
            <feGaussianBlur stdDeviation="2" />
            <feComposite in2="hardAlpha" operator="arithmetic" k2="-1" k3="1" />
            <feColorMatrix type="matrix" values="0 0 0 0 1 0 0 0 0 1 0 0 0 0 1 0 0 0 1 0" />
            <feBlend mode="normal" in2="shape" result="effect2_innerShadow_678_2254" />
            <feColorMatrix in="SourceAlpha" type="matrix" values="0 0 0 0 0 0 0 0 0 0 0 0 0 0 0 0 0 0 127 0"
                result="hardAlpha" />
            <feOffset dy="1" />
            <feGaussianBlur stdDeviation="2" />
            <feComposite in2="hardAlpha" operator="arithmetic" k2="-1" k3="1" />
            <feColorMatrix type="matrix" values="0 0 0 0 0 0 0 0 0 0 0 0 0 0 0 0 0 0 1 0" />
            <feBlend mode="normal" in2="effect2_innerShadow_678_2254" result="effect3_innerShadow_678_2254" />
        </filter>
        <linearGradient id="paint0_linear_678_2254" x1="28" y1="0" x2="28" y2="48" gradientUnits="userSpaceOnUse">
            <stop stop-color="white" />
            <stop offset="1" stop-color="#3E3E3E" />
        </linearGradient>
        <radialGradient id="paint1_radial_678_2254" cx="0" cy="0" r="1" gradientUnits="userSpaceOnUse"
            gradientTransform="translate(32 27) rotate(90) scale(17 16)">
            <stop stop-color="#D9D9D9" />
            <stop offset="1" stop-color="#D9D9D9" stop-opacity="0" />
        </radialGradient>
        <linearGradient id="paint2_linear_678_2254" x1="32.5" y1="16" x2="32.5" y2="31" gradientUnits="userSpaceOnUse">
            <stop stop-color="white" />
            <stop offset="1" stop-color="#3E3E3E" />
        </linearGradient>
        <linearGradient id="paint3_linear_678_2254" x1="23.5" y1="16" x2="23.5" y2="31" gradientUnits="userSpaceOnUse">
            <stop stop-color="white" />
            <stop offset="1" stop-color="#3E3E3E" />
        </linearGradient>
    </defs>
</svg>