<svg width="56" height="56" viewBox="0 0 56 56" fill="none" xmlns="http://www.w3.org/2000/svg">
<g filter="url(#filter0_dii_678_2249)">
<circle cx="28" cy="24" r="24" fill="black" fill-opacity="0.07" shape-rendering="crispEdges"/>
<circle cx="28" cy="24" r="23.5" stroke="url(#paint0_linear_678_2249)" shape-rendering="crispEdges"/>
</g>
<ellipse cx="32" cy="27" rx="16" ry="17" fill="url(#paint1_radial_678_2249)"/>
<g filter="url(#filter1_d_678_2249)">
<path d="M22.0515 16.0842C21.5872 15.8487 21 16.1351 21 16.5971V30.4029C21 30.8648 21.5872 31.1513 22.0515 30.9158L35.6587 24.0129C36.1138 23.782 36.1138 23.218 35.6587 22.9871L22.0515 16.0842Z" fill="white"/>
<path d="M22.2777 31.3617L22.2777 31.3617L35.8849 24.4588L35.8849 24.4588C36.2674 24.2647 36.5 23.9012 36.5 23.5C36.5 23.0988 36.2674 22.7353 35.8849 22.5412L35.8849 22.5412L22.2777 15.6383C22.2777 15.6383 22.2777 15.6383 22.2777 15.6383C21.8955 15.4444 21.4674 15.4663 21.1324 15.6297C20.7978 15.793 20.5 16.1323 20.5 16.5971V30.4029C20.5 30.8677 20.7978 31.207 21.1324 31.3703C21.4674 31.5337 21.8955 31.5556 22.2777 31.3617Z" stroke="url(#paint2_linear_678_2249)" stroke-linecap="round" stroke-linejoin="round"/>
</g>
<defs>
<filter id="filter0_dii_678_2249" x="0" y="-1" width="56" height="57" filterUnits="userSpaceOnUse" color-interpolation-filters="sRGB">
<feFlood flood-opacity="0" result="BackgroundImageFix"/>
<feColorMatrix in="SourceAlpha" type="matrix" values="0 0 0 0 0 0 0 0 0 0 0 0 0 0 0 0 0 0 127 0" result="hardAlpha"/>
<feOffset dy="4"/>
<feGaussianBlur stdDeviation="2"/>
<feComposite in2="hardAlpha" operator="out"/>
<feColorMatrix type="matrix" values="0 0 0 0 0 0 0 0 0 0 0 0 0 0 0 0 0 0 0.25 0"/>
<feBlend mode="normal" in2="BackgroundImageFix" result="effect1_dropShadow_678_2249"/>
<feBlend mode="normal" in="SourceGraphic" in2="effect1_dropShadow_678_2249" result="shape"/>
<feColorMatrix in="SourceAlpha" type="matrix" values="0 0 0 0 0 0 0 0 0 0 0 0 0 0 0 0 0 0 127 0" result="hardAlpha"/>
<feOffset dy="-1"/>
<feGaussianBlur stdDeviation="2"/>
<feComposite in2="hardAlpha" operator="arithmetic" k2="-1" k3="1"/>
<feColorMatrix type="matrix" values="0 0 0 0 1 0 0 0 0 1 0 0 0 0 1 0 0 0 1 0"/>
<feBlend mode="normal" in2="shape" result="effect2_innerShadow_678_2249"/>
<feColorMatrix in="SourceAlpha" type="matrix" values="0 0 0 0 0 0 0 0 0 0 0 0 0 0 0 0 0 0 127 0" result="hardAlpha"/>
<feOffset dy="1"/>
<feGaussianBlur stdDeviation="2"/>
<feComposite in2="hardAlpha" operator="arithmetic" k2="-1" k3="1"/>
<feColorMatrix type="matrix" values="0 0 0 0 0 0 0 0 0 0 0 0 0 0 0 0 0 0 1 0"/>
<feBlend mode="normal" in2="effect2_innerShadow_678_2249" result="effect3_innerShadow_678_2249"/>
</filter>
<filter id="filter1_d_678_2249" x="18" y="15" width="21" height="21" filterUnits="userSpaceOnUse" color-interpolation-filters="sRGB">
<feFlood flood-opacity="0" result="BackgroundImageFix"/>
<feColorMatrix in="SourceAlpha" type="matrix" values="0 0 0 0 0 0 0 0 0 0 0 0 0 0 0 0 0 0 127 0" result="hardAlpha"/>
<feOffset dy="2"/>
<feGaussianBlur stdDeviation="1"/>
<feComposite in2="hardAlpha" operator="out"/>
<feColorMatrix type="matrix" values="0 0 0 0 0 0 0 0 0 0 0 0 0 0 0 0 0 0 0.5 0"/>
<feBlend mode="normal" in2="BackgroundImageFix" result="effect1_dropShadow_678_2249"/>
<feBlend mode="normal" in="SourceGraphic" in2="effect1_dropShadow_678_2249" result="shape"/>
</filter>
<linearGradient id="paint0_linear_678_2249" x1="28" y1="0" x2="28" y2="48" gradientUnits="userSpaceOnUse">
<stop stop-color="white"/>
<stop offset="1" stop-color="#3E3E3E"/>
</linearGradient>
<radialGradient id="paint1_radial_678_2249" cx="0" cy="0" r="1" gradientUnits="userSpaceOnUse" gradientTransform="translate(32 27) rotate(90) scale(17 16)">
<stop stop-color="#D9D9D9"/>
<stop offset="1" stop-color="#D9D9D9" stop-opacity="0"/>
</radialGradient>
<linearGradient id="paint2_linear_678_2249" x1="28.5" y1="16" x2="28.5" y2="31" gradientUnits="userSpaceOnUse">
<stop stop-color="white"/>
<stop offset="1" stop-color="#3E3E3E"/>
</linearGradient>
</defs>
</svg>
