<svg width="56" height="56" viewBox="0 0 56 56" fill="none" xmlns="http://www.w3.org/2000/svg">
<g filter="url(#filter0_dii_678_2260)">
<circle cx="28" cy="24" r="24" fill="black" fill-opacity="0.07" shape-rendering="crispEdges"/>
<circle cx="28" cy="24" r="23.5" stroke="url(#paint0_linear_678_2260)" shape-rendering="crispEdges"/>
</g>
<ellipse cx="32" cy="27" rx="16" ry="17" fill="url(#paint1_radial_678_2260)"/>
<g filter="url(#filter1_d_678_2260)">
<path d="M35.723 16.1423C36.24 15.8028 37 16.1091 37 16.6569V30.3431C37 30.891 36.24 31.1972 35.723 30.8577L25.2999 24.0146C24.9 23.7521 24.9 23.2479 25.2999 22.9854L35.723 16.1423Z" fill="white"/>
<path d="M35.4486 31.2757L35.4486 31.2757C35.8602 31.546 36.3545 31.5532 36.7423 31.3969C37.1274 31.2417 37.5 30.8777 37.5 30.3431V16.6569C37.5 16.1224 37.1274 15.7583 36.7423 15.6031C36.3545 15.4468 35.8602 15.454 35.4486 15.7243L35.7225 16.1415L35.4486 15.7243L25.0255 22.5674C25.0255 22.5674 25.0255 22.5674 25.0255 22.5674C24.6978 22.7825 24.5 23.1249 24.5 23.5C24.5 23.8752 24.6978 24.2175 25.0255 24.4326L35.4486 31.2757Z" stroke="url(#paint2_linear_678_2260)" stroke-linecap="round" stroke-linejoin="round"/>
</g>
<g filter="url(#filter2_d_678_2260)">
<path d="M19 29.5V17.5C19 16.6716 19.6716 16 20.5 16C21.3284 16 22 16.6716 22 17.5V29.5C22 30.3284 21.3284 31 20.5 31C19.6716 31 19 30.3284 19 29.5Z" fill="white"/>
<path d="M18.5 17.5V29.5C18.5 30.6046 19.3954 31.5 20.5 31.5C21.6046 31.5 22.5 30.6046 22.5 29.5V17.5C22.5 16.3954 21.6046 15.5 20.5 15.5C19.3954 15.5 18.5 16.3954 18.5 17.5Z" stroke="url(#paint3_linear_678_2260)"/>
</g>
<defs>
<filter id="filter0_dii_678_2260" x="0" y="-1" width="56" height="57" filterUnits="userSpaceOnUse" color-interpolation-filters="sRGB">
<feFlood flood-opacity="0" result="BackgroundImageFix"/>
<feColorMatrix in="SourceAlpha" type="matrix" values="0 0 0 0 0 0 0 0 0 0 0 0 0 0 0 0 0 0 127 0" result="hardAlpha"/>
<feOffset dy="4"/>
<feGaussianBlur stdDeviation="2"/>
<feComposite in2="hardAlpha" operator="out"/>
<feColorMatrix type="matrix" values="0 0 0 0 0 0 0 0 0 0 0 0 0 0 0 0 0 0 0.25 0"/>
<feBlend mode="normal" in2="BackgroundImageFix" result="effect1_dropShadow_678_2260"/>
<feBlend mode="normal" in="SourceGraphic" in2="effect1_dropShadow_678_2260" result="shape"/>
<feColorMatrix in="SourceAlpha" type="matrix" values="0 0 0 0 0 0 0 0 0 0 0 0 0 0 0 0 0 0 127 0" result="hardAlpha"/>
<feOffset dy="1"/>
<feGaussianBlur stdDeviation="2"/>
<feComposite in2="hardAlpha" operator="arithmetic" k2="-1" k3="1"/>
<feColorMatrix type="matrix" values="0 0 0 0 0 0 0 0 0 0 0 0 0 0 0 0 0 0 1 0"/>
<feBlend mode="normal" in2="shape" result="effect2_innerShadow_678_2260"/>
<feColorMatrix in="SourceAlpha" type="matrix" values="0 0 0 0 0 0 0 0 0 0 0 0 0 0 0 0 0 0 127 0" result="hardAlpha"/>
<feOffset dy="-1"/>
<feGaussianBlur stdDeviation="2"/>
<feComposite in2="hardAlpha" operator="arithmetic" k2="-1" k3="1"/>
<feColorMatrix type="matrix" values="0 0 0 0 1 0 0 0 0 1 0 0 0 0 1 0 0 0 1 0"/>
<feBlend mode="normal" in2="effect2_innerShadow_678_2260" result="effect3_innerShadow_678_2260"/>
</filter>
<filter id="filter1_d_678_2260" x="22" y="15" width="18" height="21" filterUnits="userSpaceOnUse" color-interpolation-filters="sRGB">
<feFlood flood-opacity="0" result="BackgroundImageFix"/>
<feColorMatrix in="SourceAlpha" type="matrix" values="0 0 0 0 0 0 0 0 0 0 0 0 0 0 0 0 0 0 127 0" result="hardAlpha"/>
<feOffset dy="2"/>
<feGaussianBlur stdDeviation="1"/>
<feComposite in2="hardAlpha" operator="out"/>
<feColorMatrix type="matrix" values="0 0 0 0 0 0 0 0 0 0 0 0 0 0 0 0 0 0 0.5 0"/>
<feBlend mode="normal" in2="BackgroundImageFix" result="effect1_dropShadow_678_2260"/>
<feBlend mode="normal" in="SourceGraphic" in2="effect1_dropShadow_678_2260" result="shape"/>
</filter>
<filter id="filter2_d_678_2260" x="16" y="15" width="9" height="21" filterUnits="userSpaceOnUse" color-interpolation-filters="sRGB">
<feFlood flood-opacity="0" result="BackgroundImageFix"/>
<feColorMatrix in="SourceAlpha" type="matrix" values="0 0 0 0 0 0 0 0 0 0 0 0 0 0 0 0 0 0 127 0" result="hardAlpha"/>
<feOffset dy="2"/>
<feGaussianBlur stdDeviation="1"/>
<feComposite in2="hardAlpha" operator="out"/>
<feColorMatrix type="matrix" values="0 0 0 0 0 0 0 0 0 0 0 0 0 0 0 0 0 0 0.5 0"/>
<feBlend mode="normal" in2="BackgroundImageFix" result="effect1_dropShadow_678_2260"/>
<feBlend mode="normal" in="SourceGraphic" in2="effect1_dropShadow_678_2260" result="shape"/>
</filter>
<linearGradient id="paint0_linear_678_2260" x1="28" y1="0" x2="28" y2="48" gradientUnits="userSpaceOnUse">
<stop stop-color="white"/>
<stop offset="1" stop-color="#3E3E3E"/>
</linearGradient>
<radialGradient id="paint1_radial_678_2260" cx="0" cy="0" r="1" gradientUnits="userSpaceOnUse" gradientTransform="translate(32 27) rotate(90) scale(17 16)">
<stop stop-color="#D9D9D9"/>
<stop offset="1" stop-color="#D9D9D9" stop-opacity="0"/>
</radialGradient>
<linearGradient id="paint2_linear_678_2260" x1="31" y1="16" x2="31" y2="31" gradientUnits="userSpaceOnUse">
<stop stop-color="white"/>
<stop offset="1" stop-color="#3E3E3E"/>
</linearGradient>
<linearGradient id="paint3_linear_678_2260" x1="20.5" y1="16" x2="20.5" y2="31" gradientUnits="userSpaceOnUse">
<stop stop-color="white"/>
<stop offset="1" stop-color="#3E3E3E"/>
</linearGradient>
</defs>
</svg>
