<svg id="Layer_1" data-name="Layer 1" xmlns="http://www.w3.org/2000/svg" viewBox="0 0 190 190" fill="currentColor">
    <path
        d="M129.46,87.33,129,88.65c-.13.47-.25.94-.37,1.41l-.9,1.35c0,.19,0,.39,0,.59-.25.48-.49,1-.73,1.44-.52.65-1,1.28-1.57,1.9s-.85,1.09-1.27,1.62l-1.07,2.61c-.11.5-.22,1-.32,1.49l-1,2.27-.09,1-.88,2-.36,1.66-1.3,1.71c-.24.64-.47,1.28-.69,1.91s-.28,1.23-.41,1.85q-2,2.72-3.87,5.07l-1.26.59c-.13.36-.25.72-.36,1.07l-1.06,1q-.25.78-.48,1.53l-.54.88c0,.42.07.85.11,1.27l-1.17,1.85-.86.75c0,.47-.06.93-.08,1.39s0,.72,0,1.08-.21.64-.31.94c.12.32.25.63.38.94l-.06.86c.14.2.28.39.41.59-.26.1-.53.19-.79.27-.21.27-.42.52-.62.76l-.95-.34-1.28-.54c-.26-.31-.52-.61-.79-.9-.84-.43-1.68-.85-2.52-1.25l-1.19-1.09-.82-.87c-.54-.39-1.08-.78-1.62-1.15-.06-.19-.13-.38-.19-.56-.48-.27-.95-.53-1.43-.78l.89-.63c-.49-.35-1-.69-1.46-1q-.31-.63-.6-1.26c-.68-.54-1.35-1.06-2-1.55-.26-.41-.51-.82-.74-1.21l-.6-.93c-.27-.49-.51-1-.73-1.43q-.21-.24-.42-.45l-.53-.64-.75-.73c-.43-.49-.82-.94-1.17-1.37l-1.55-.54-1.63.9-.59.32a11.71,11.71,0,0,0-.67,1.84c-.24.3-.46.6-.68.9.07.26.16.52.25.78-.25.32-.48.63-.7.93s-.37.63-.53.94l-.88.41c-.12.23-.22.46-.31.68s-.17.53-.24.78a7.24,7.24,0,0,0,.61,1.51l-.56.23.73.41-1,.09-2-.26L76.17,125l-2.43-.58-1-.4-1.33-.49-.94-.4-.25-.27c.44-.06.89-.14,1.35-.22l1-.08.84-.13,1-.38a2.82,2.82,0,0,1,0-.58l1.13-.51.41-.5,1.11-.41a5.32,5.32,0,0,1-.2-1.16l-.45-.33c0-.21-.07-.41-.09-.62l1.06-.74,1.14-.58,1.15-.72c.71-.23,1.41-.48,2.12-.73q1.06-.92,2.31-1.89l2.19-1,1.07-.76,2.22-1.1.74-.38,1-.44.69-.53.82-.39,1-.39.49,0c0,.14-.1.29-.14.43s0,.44-.06.68-.16.61-.23.92a14.67,14.67,0,0,0-.7,2.43c0,.37-.08.74-.09,1.12.16.2.34.4.52.61,0,.25,0,.5.07.75s0,.5,0,.75c.19.35.39.7.61,1.07,0,.43.08.87.14,1.31l1.45.84c.27.45.55.91.85,1.38.08.44.17.89.28,1.34.3.39.62.79.94,1.19l1.08,1.45.77,1,.57.55,1,.16.69-.39,1.35-.35c.1-.37.2-.73.31-1.11l.86-.18-.3-.58.72-1.32c-.13-.32-.27-.64-.4-1,.11-.39.22-.77.34-1.16l1.08-.56c.38-.3.77-.6,1.15-.92l1-1.17c.44-.4.88-.82,1.33-1.25s.83-.56,1.25-.86c0-.41.08-.82.14-1.24l1.27-1.39c.24-.31.48-.62.71-.94l1.07-1.71.71-1.39c0-.67.12-1.33.2-2l-.43-1.29c-.16-.42-.32-.84-.47-1.25l-.6-.77c.14-.44.3-.88.45-1.32s.27-1.07.42-1.6c.49-.43,1-.86,1.46-1.31l.38-.95,1.15-1.13,1.43-2.45,1.36-1.79.75-.29c.69-.55,1.38-1.12,2.06-1.7.47-.53.94-1.08,1.41-1.62.73-.66,1.45-1.32,2.17-2,.48-.43,1-.87,1.42-1.31l.93-.19c.1.23.2.48.3.73l.66-.55C129.54,86.43,129.5,86.88,129.46,87.33ZM79.71,126.48l-1-.2-1-.3.06-.1,1.36.34Zm27.37-22.22-1.56.95.36-.71,1.22-.46A1.64,1.64,0,0,0,107.08,104.26Z" />
    <path
        d="M162.91,69.37c-.16,1.65-.33,3.29-.49,4.91-.18,2.22-.37,4.41-.55,6.59-.34,1.64-.69,3.25-1.05,4.84s-.45,3-.68,4.45-.49,3.15-.75,4.7q-.31,2.73-.64,5.43l.06,4.64q-.09,2.28-.18,4.53c.05.92.11,1.83.16,2.75,0,1.48-.11,3-.16,4.44,0,1.76-.09,3.52-.14,5.28-.19,1.23-.38,2.44-.57,3.64q.33,4.37.69,8.81c-.05,1.22-.1,2.44-.14,3.65v4c-.07,1.54-.13,3.07-.2,4.59-.08,1.08-.15,2.15-.23,3.22s-.08,1.91-.12,2.85c0,1.68,0,3.36,0,5q.32,2.43.63,4.92.48,4.88.93,9.86.25,1.35.51,2.73c.21.45.41.91.61,1.38l-.24,1.7-.83,0-.94-2c-.14-.81-.27-1.61-.41-2.41s-.15-1.67-.22-2.5c-.23-.75-.45-1.49-.68-2.22-.27-1.89-.54-3.77-.82-5.62-.19-1.05-.39-2.09-.59-3.12s-.68-2-1-3l-.75,1.07-.83.55-1.91-.69-1.49-.75c-1-.27-2-.55-3.08-.85l-2.19-1.46c-1.07-1-2.15-2-3.23-2.93l-2.26-1.57-1-1.94c-.63-.62-1.27-1.22-1.91-1.82-.41-.45-.81-.9-1.22-1.34-.36-.72-.72-1.42-1.08-2.12-.56-.68-1.11-1.35-1.67-2l-1.07-2c-.43-.64-.85-1.26-1.28-1.88-.05-.63-.1-1.27-.14-1.91-.31-1-.62-1.92-.91-2.87.13-.89.27-1.8.43-2.73l.71-1.34,1-2.53c.74-.52,1.49-1.06,2.23-1.63.89-.14,1.77-.29,2.66-.45.55-.24,1.09-.5,1.64-.76q1.83-.48,3.66-1l2.45.63,1.66,0c.63.42,1.25.85,1.88,1.3.94.25,1.88.51,2.81.78q1.25.91,2.49,1.89c-.12-1.45-.23-2.89-.34-4.32s.1-2.81.15-4.22c0-1.17,0-2.34.07-3.51-.1-2.43-.2-4.84-.28-7.24-.12-1.12-.24-2.23-.35-3.33l0-4.29c.21-1.61.42-3.22.64-4.85,0-1,0-2,.05-3-.09-1.19-.18-2.38-.25-3.56s-.23-2.22-.34-3.31l-1.27-3.74c0-.82-.06-1.65-.08-2.46,0-.49,0-1,.08-1.47l.21-2,.63-2.3c.35-.65.69-1.32,1-2l2.48-2.07c.7-.05,1.4-.09,2.12-.11.76-1,1.52-2.06,2.27-3.12.91-.13,1.83-.23,2.76-.31C162.28,66.94,162.59,68.14,162.91,69.37ZM140,113.92c-.2,1-.4,2.09-.59,3.13l-1.07.78c0,.3,0,.61,0,.91.12.55.25,1.1.38,1.66l-1.6.65-1.31,0c-.58-.38-1.16-.75-1.74-1.1-.09-.62-.17-1.23-.25-1.84V117q.24-1.67.51-3.36c.29-.5.57-1,.86-1.54l2.18-.4c.61.23,1.21.47,1.81.72Zm13.19,31.29c-.09-2-.19-4.06-.27-6.09l-.36-3c-.3-.72-.6-1.44-.9-2.14-.08-1-.15-2-.22-2.93l-.85-2.45-1.79-.53-2.57-.36c-1,.23-1.95.45-2.93.65-1,.65-1.95,1.27-2.92,1.85-.57.55-1.12,1.09-1.68,1.61-.37.53-.74,1.06-1.11,1.57-.15.6-.3,1.2-.44,1.79l-1.19,1.5-.06,1.69c.18.61.36,1.23.55,1.85l.78,1.5,1.05,1.38c1.06,1.34,2.11,2.73,3.17,4.18q2.15,1.63,4.26,3.4l2.67,1.37c.56.31,1.11.63,1.66.95l1.69.85,1.44,1.12c-.16-.91-.33-1.81-.49-2.71l.66-.05c-.08-1.42-.16-2.84-.23-4.27C153.12,147,153.15,146.11,153.18,145.21Z" />
    <path
        d="M167,51l-.18.39-1.44.4h-2.07l-1.08-.05-2.07.05-1.44.32-1.08.22-.72.17-3.87.4-3.51.23-3.33.26-3.69.17-2.25.05-.9.57v5.16l.36,1.28-1.26.63-2.43.4-.54.14.18.51.9.83V64.2l-2.34.57v.83l.72,1.05.72,1.45.72.68-.36.66v.68l-.53.83-.36.65-.35.34h-1.33l-.89,0-.36-.29-1.24-1v-1l1.24-.88-.71-1.11-.18-1.06-.7-.85.17-1.11-.17-1.45-1-.94V60.92l-.36-1.39L129.11,58l.18-1.45.36-1.34-.9-.74-.36-.48-1.81-.06-2.07-.23-4.25-.06-3.16-.17-4.42.17-3.52.06-2,.4-2.26.43-2.43.45-3.07.46-1.72.11-1.08-.22-1.53-.12L94,54.75l.19-.77-.37-.89.9-.85,1.36-.94.53-.71,1.44-1.11,1.36-.69,2.34-1.33,1.17-1.34,1.26-1.23.18-.94V43l.72-.82,1.89-.8,1.44-.43,1.26-.68,2.25-1.17,1.44-.82.9-1L116,35.67l1.08-.71-.18-.69.36-.17.36-.6.36-.79,1.89-.6,2.61-.46,1.62,0,1.44,0H127l2,.29,2.79.45,3.33.83,1.44.88-.54.51-.53.6-.71.29-.72.51-2.23.71-2,.88-1.87.86-2.41.77-1.8,1-1.89.94-1.44.52-.9.11-.54.71-1,.68-.72.89-.36.71-3,1.45-.9.8-1.62.82-1.71.72-1.26.57-.72.76-.54.52.36.34,1.08.2,2.25.23,2.7.11h2.61l2.61.11,2.52-.11,2.61-.06,1.8-.05,1-.23V50l-1-.77.63-1.39,1.8-1-.18-1V44.47l.18-.46v-.88l.53-.69,1.34-.31h1.43l1.42.31,1.34.57,1.78.46,1.25.54.45.83v1.79l-.18.71v.8l.18.65v.63l-.18.48.72.29,1.08.57,1.44.14,2.07-.14,2.16-.17h14l1.08-.29,2.79.17,2.43-.28v.4l1.44.17Zm-7.92-1.6-.36.2-1.44-.14v-.29l1.26,0Z" />
    <path
        d="M128.72,79l-.16.31-1.26.32h-1.82l-.94,0-1.82,0-1.26.24-.95.18-.63.13-3.4.31-3.08.18-2.92.2-3.24.13-2,0-.79.44v4l.32,1-1.11.49-2.13.31-.48.11.16.41.79.64v.82l-2,.45v.64l.63.83.63,1.13.63.53-.31.52V94l-.47.65-.31.51-.31.26H99.3l-.78,0-.31-.22-1.09-.78v-.78l1.09-.69L97.59,92l-.16-.82-.62-.67.15-.87-.15-1.13L96,87.78v-1l-.31-1.09-.16-1.2.16-1.13.31-1-.79-.57-.31-.38-1.59,0-1.82-.18-3.72,0L85,81l-3.88.13-3.09,0-1.74.32-2,.33-2.13.36-2.7.35-1.5.09-1-.18-1.34-.09-1-.35.16-.6-.32-.69.79-.67,1.18-.73L67,78.7l1.26-.87,1.18-.53,2.06-1,1-1,1.11-1,.16-.73v-.74l.63-.64,1.66-.63,1.26-.33,1.1-.53,2-.92,1.26-.64.79-.78L84,67l1-.55L84.74,66l.32-.13.31-.47.32-.62,1.66-.47,2.29-.35,1.42,0,1.26,0h1.34l1.74.22,2.45.35,2.92.65,1.26.69-.47.4-.47.47-.62.22-.63.4-2,.56-1.72.68-1.64.67-2.12.6-1.58.78-1.66.74-1.26.4-.79.09-.47.55-.87.54-.63.69-.32.55L82.21,75.3l-.78.62L80,76.56l-1.5.56-1.1.44-.63.61-.48.4.32.26,1,.16,2,.18,2.37.09h2.29l2.29.08,2.21-.08L91,79.21l1.58,0,.86-.18v-.78l-.86-.6.55-1.09,1.58-.78L94.53,75v-1l.16-.36v-.69l.47-.53,1.17-.25h1.25l1.26.25,1.17.44,1.56.36,1.1.42.39.65v1.4l-.16.55v.63l.16.51v.49l-.16.38.63.22,1,.44,1.26.11,1.82-.11,1.89-.13h12.32l1-.22,2.45.13,2.13-.22v.31l1.26.13Zm-7-1.24-.31.15-1.27-.11v-.22l1.11,0Z" />
    <path
        d="M95.14,100.92l-.14.25-1.11.24H92.3l-.83,0-1.6,0-1.1.19-.83.14-.56.1-3,.25-2.7.14-2.56.15-2.84.11-1.73,0-.69.35V106l.27.79-1,.38-1.87.24-.41.09.14.31.69.51V109l-1.8.35v.5l.55.64.56.89.55.42-.28.4v.41l-.41.51-.27.4-.27.21h-1l-.68,0-.27-.17-1-.61v-.61l1-.54-.55-.68-.14-.64-.54-.52.13-.68-.13-.88-.75-.58V107l-.28-.85-.14-.94.14-.89.28-.81-.7-.45-.28-.3-1.39,0-1.59-.13-3.27,0-2.43-.1-3.4.1-2.71,0-1.53.24-1.73.26-1.87.28-2.37.28-1.31.07-.84-.14-1.18-.07L39,103.2l.14-.47-.28-.54.69-.52,1-.57.42-.44,1.1-.68,1-.41,1.8-.82.91-.82,1-.74.14-.58V96l.56-.51,1.45-.48,1.11-.26,1-.42,1.73-.71,1.11-.51.69-.61,1.32-1,.83-.43-.14-.42.28-.1.27-.37.28-.48,1.46-.37,2-.28,1.25,0,1.11,0h1.18l1.52.18,2.15.28,2.56.5,1.11.54-.41.31-.42.37-.54.17-.55.31-1.72.44-1.51.54-1.45.52-1.85.47-1.39.61-1.45.57-1.11.31-.69.07-.42.44-.76.41-.55.54-.28.44L54.34,98l-.69.49L52.4,99l-1.31.44-1,.34-.55.47-.42.32.28.21.83.12L52,101l2.08.07h2l2,.07L60,101.1l2,0,1.39,0,.75-.14v-.61l-.75-.47L63.9,99l1.39-.61-.14-.61v-.82l.14-.27v-.54l.41-.42,1-.19h1.09l1.1.19L70,96l1.37.28,1,.33.34.5v1.1l-.14.43v.49l.14.4V100l-.14.29.55.18.84.35,1.1.08,1.6-.08,1.66-.11H89l.83-.17,2.15.1,1.87-.17v.24l1.11.11ZM89,100l-.27.12L87.66,100v-.17l1,0Z" />
    <path
        d="M65.68,118l-.12.19-1,.19h-1.4l-.73,0-1.4,0-1,.15-.73.11-.48.08-2.62.19-2.37.11-2.24.12-2.49.08-1.52,0-.61.27V122l.24.61-.85.3-1.64.19-.36.07.12.24.61.4v.5l-1.58.27V125l.48.51.49.69.48.33-.24.31v.32l-.36.4-.24.31-.24.16H43l-.59,0-.25-.13-.83-.48v-.47l.83-.42-.47-.53-.12-.5-.48-.41.12-.53-.12-.69-.66-.45v-.61l-.25-.67-.12-.73.12-.69.25-.64-.61-.35-.24-.24-1.22,0L37,119.3l-2.87,0L32,119.19l-3,.08-2.38,0-1.34.19-1.52.2-1.65.22-2.07.22-1.15.05-.74-.11-1,0-.73-.22.12-.37-.24-.42.6-.4.92-.45.36-.34,1-.53.91-.33,1.58-.63.79-.64.85-.59.13-.44v-.45l.48-.4,1.28-.38,1-.2.85-.33,1.52-.55,1-.4.61-.47,1.15-.78.73-.34-.12-.32.24-.08.25-.29.24-.38,1.28-.28,1.76-.22,1.09,0,1,0h1l1.33.14,1.89.21,2.24.4,1,.42-.37.24-.36.29-.48.13-.48.25-1.51.34-1.32.42-1.27.41-1.63.36-1.21.48-1.28.44-1,.25-.61.05-.36.34-.67.33-.49.42-.24.34-2,.69-.61.38-1.09.4-1.16.33-.85.28-.49.36-.36.25.24.16.73.1,1.52.1,1.82.06h1.77l1.76,0,1.7,0,1.76,0,1.22,0,.66-.1v-.48l-.66-.37.42-.66L39.5,116l-.13-.47v-.64l.12-.22v-.42l.37-.32.9-.15h1l1,.15.9.27,1.2.21.84.26.31.4v.85l-.13.34v.38l.13.31v.3l-.13.23.49.14.73.27,1,.07,1.4-.07,1.46-.08h9.47l.73-.14,1.89.08,1.64-.13v.19l1,.08Zm-5.35-.76-.24.1-1-.07v-.14l.85,0Z" />
</svg>